Merritest-Light.ufo
<glyph name="quotedbl" format="1">
  <advance width="1260"/>
  <unicode hex="0022"/>
  <outline>
    <contour>
      <point x="802" y="966" type="line"/>
      <point x="765" y="1782" type="line"/>
      <point x="935" y="1782" type="line"/>
      <point x="898" y="966" type="line"/>
    </contour>
    <contour>
      <point x="362" y="966" type="line"/>
      <point x="325" y="1782" type="line"/>
      <point x="495" y="1782" type="line"/>
      <point x="458" y="966" type="line"/>
    </contour>
  </outline>
</glyph>
<glyph name="ampersand" format="1">
  <advance width="1569"/>
  <unicode hex="0026"/>
  <outline>
    <contour>
      <point x="188" y="356" type="curve" smooth="yes"/>
      <point x="188" y="571"/>
      <point x="359" y="675"/>
      <point x="525" y="758" type="curve"/>
      <point x="434" y="877"/>
      <point x="329" y="1016"/>
      <point x="326" y="1177" type="curve" smooth="yes"/>
      <point x="321" y="1420"/>
      <point x="489" y="1559"/>
      <point x="696" y="1559" type="curve" smooth="yes"/>
      <point x="923" y="1559"/>
      <point x="1029" y="1413"/>
      <point x="1033" y="1240" type="curve" smooth="yes"/>
      <point x="1037" y="1031"/>
      <point x="876" y="858"/>
      <point x="698" y="756" type="curve"/>
      <point x="792" y="639"/>
      <point x="1007" y="395"/>
      <point x="1111" y="298" type="curve"/>
      <point x="1156" y="257" type="line"/>
      <point x="1194" y="328"/>
      <point x="1206" y="412"/>
      <point x="1206" y="491" type="curve" smooth="yes"/>
      <point x="1206" y="631"/>
      <point x="1172" y="718"/>
      <point x="1159" y="738" type="curve"/>
      <point x="1299" y="738" type="line"/>
      <point x="1315" y="696"/>
      <point x="1337" y="624"/>
      <point x="1337" y="521" type="curve" smooth="yes"/>
      <point x="1337" y="411"/>
      <point x="1308" y="284"/>
      <point x="1236" y="189" type="curve"/>
      <point x="1331" y="114"/>
      <point x="1400" y="84"/>
      <point x="1489" y="82" type="curve"/>
      <point x="1489" y="15" type="line"/>
      <point x="1451" y="1"/>
      <point x="1408" y="0"/>
      <point x="1356" y="6" type="curve" smooth="yes"/>
      <point x="1291" y="13"/>
      <point x="1218" y="49"/>
      <point x="1144" y="101" type="curve"/>
      <point x="1041" y="10"/>
      <point x="867" y="-32"/>
      <point x="736" y="-32" type="curve" smooth="yes"/>
      <point x="531" y="-32"/>
      <point x="188" y="39"/>
    </contour>
    <contour>
      <point x="648" y="817" type="curve"/>
      <point x="812" y="899"/>
      <point x="911" y="1040"/>
      <point x="908" y="1217" type="curve" smooth="yes"/>
      <point x="906" y="1328"/>
      <point x="859" y="1480"/>
      <point x="679" y="1480" type="curve" smooth="yes"/>
      <point x="576" y="1480"/>
      <point x="452" y="1408"/>
      <point x="455" y="1227" type="curve" smooth="yes"/>
      <point x="458" y="1032"/>
      <point x="577" y="899"/>
    </contour>
    <contour>
      <point x="326" y="371" type="curve" smooth="yes"/>
      <point x="326" y="170"/>
      <point x="522" y="61"/>
      <point x="744" y="61" type="curve" smooth="yes"/>
      <point x="863" y="61"/>
      <point x="995" y="83"/>
      <point x="1073" y="156" type="curve"/>
      <point x="1065" y="163"/>
      <point x="1057" y="169"/>
      <point x="1050" y="176" type="curve" smooth="yes"/>
      <point x="914" y="293"/>
      <point x="679" y="554"/>
      <point x="571" y="696" type="curve"/>
      <point x="402" y="608"/>
      <point x="326" y="524"/>
    </contour>
  </outline>
</glyph>
<glyph name="parenright" format="1">
  <advance width="813"/>
  <unicode hex="0029"/>
  <outline>
    <contour>
      <point x="151" y="-256" type="line"/>
      <point x="239" y="-200"/>
      <point x="543" y="117"/>
      <point x="559" y="655" type="curve" smooth="yes"/>
      <point x="578" y="1280"/>
      <point x="244" y="1618"/>
      <point x="147" y="1684" type="curve"/>
      <point x="227" y="1732" type="line"/>
      <point x="320" y="1677"/>
      <point x="699" y="1369"/>
      <point x="699" y="704" type="curve" smooth="yes"/>
      <point x="699" y="123"/>
      <point x="314" y="-245"/>
      <point x="221" y="-296" type="curve"/>
    </contour>
  </outline>
</glyph>
<glyph name="plus" format="1">
  <advance width="1257"/>
  <unicode hex="002B"/>
  <outline>
    <contour>
      <point x="568" y="321" type="line"/>
      <point x="568" y="579" type="line"/>
      <point x="575" y="744" type="line"/>
      <point x="413" y="738" type="line"/>
      <point x="172" y="738" type="line"/>
      <point x="172" y="856" type="line"/>
      <point x="413" y="856" type="line"/>
      <point x="575" y="846" type="line"/>
      <point x="568" y="1012" type="line"/>
      <point x="568" y="1260" type="line"/>
      <point x="688" y="1260" type="line"/>
      <point x="688" y="1012" type="line"/>
      <point x="680" y="846" type="line"/>
      <point x="824" y="856" type="line"/>
      <point x="1085" y="856" type="line"/>
      <point x="1085" y="738" type="line"/>
      <point x="824" y="738" type="line"/>
      <point x="680" y="745" type="line"/>
      <point x="688" y="579" type="line"/>
      <point x="688" y="321" type="line"/>
    </contour>
  </outline>
</glyph>
<glyph name="comma" format="1">
  <advance width="701"/>
  <unicode hex="002C"/>
  <outline>
    <contour>
      <point x="232" y="138" type="curve"/>
      <point x="232" y="174" type="line"/>
      <point x="312" y="279" type="line"/>
      <point x="457" y="244"/>
      <point x="518" y="86"/>
      <point x="519" y="-29" type="curve" smooth="yes"/>
      <point x="522" y="-255"/>
      <point x="355" y="-416"/>
      <point x="211" y="-475" type="curve"/>
      <point x="176" y="-431" type="line"/>
      <point x="176" y="-407" type="line"/>
      <point x="269" y="-374"/>
      <point x="379" y="-240"/>
      <point x="379" y="-88" type="curve" smooth="yes"/>
      <point x="379" y="34"/>
      <point x="307" y="127"/>
    </contour>
  </outline>
</glyph>
<glyph name="less" format="1">
  <advance width="1313"/>
  <unicode hex="003C"/>
  <outline>
    <contour>
      <point x="138" y="701" type="line"/>
      <point x="138" y="802" type="line"/>
      <point x="1107" y="1317" type="line"/>
      <point x="1107" y="1179" type="line"/>
      <point x="268" y="751" type="line"/>
      <point x="1107" y="326" type="line"/>
      <point x="1107" y="187" type="line"/>
    </contour>
  </outline>
</glyph>
<glyph name="greater" format="1">
  <advance width="1313"/>
  <unicode hex="003E"/>
  <outline>
    <contour>
      <point x="206" y="187" type="line"/>
      <point x="206" y="325" type="line"/>
      <point x="1045" y="751" type="line"/>
      <point x="206" y="1178" type="line"/>
      <point x="206" y="1317" type="line"/>
      <point x="1175" y="803" type="line"/>
      <point x="1175" y="702" type="line"/>
    </contour>
  </outline>
</glyph>
<glyph name="question" format="1">
  <advance width="1012"/>
  <unicode hex="003F"/>
  <outline>
    <contour>
      <point x="458" y="490" type="line"/>
      <point x="402" y="539"/>
      <point x="295" y="724"/>
      <point x="297" y="832" type="curve" smooth="yes"/>
      <point x="299" y="994"/>
      <point x="794" y="1062"/>
      <point x="814" y="1193" type="curve"/>
      <point x="824" y="1472"/>
      <point x="585" y="1701"/>
      <point x="300" y="1702" type="curve" smooth="yes"/>
      <point x="245" y="1702"/>
      <point x="169" y="1693"/>
      <point x="130" y="1673" type="curve"/>
      <point x="130" y="1789" type="line"/>
      <point x="148" y="1812"/>
      <point x="241" y="1834"/>
      <point x="317" y="1834" type="curve" smooth="yes"/>
      <point x="777" y="1834"/>
      <point x="949" y="1479"/>
      <point x="925" y="1202" type="curve"/>
      <point x="925" y="1028"/>
      <point x="475" y="960"/>
      <point x="440" y="836" type="curve"/>
      <point x="427" y="721"/>
      <point x="495" y="601"/>
      <point x="543" y="490" type="curve"/>
    </contour>
    <contour>
      <point x="459" y="87" type="curve" smooth="yes"/>
      <point x="468" y="143"/>
      <point x="525" y="179"/>
      <point x="573" y="173" type="curve" smooth="yes"/>
      <point x="632" y="166"/>
      <point x="650" y="122"/>
      <point x="642" y="76" type="curve"/>
      <point x="635" y="16"/>
      <point x="577" y="-16"/>
      <point x="527" y="-10" type="curve"/>
      <point x="483" y="-3"/>
      <point x="450" y="35"/>
    </contour>
  </outline>
</glyph>
<glyph name="at" format="1">
  <advance width="2133"/>
  <unicode hex="0040"/>
  <outline>
    <contour>
      <point x="236" y="414" type="curve" smooth="yes"/>
      <point x="236" y="1039"/>
      <point x="695" y="1438"/>
      <point x="1215" y="1438" type="curve" smooth="yes"/>
      <point x="1598" y="1438"/>
      <point x="1901" y="1204"/>
      <point x="1901" y="812" type="curve" smooth="yes"/>
      <point x="1901" y="263"/>
      <point x="1581" y="38"/>
      <point x="1359" y="38" type="curve" smooth="yes"/>
      <point x="1302" y="38"/>
      <point x="1268" y="110"/>
      <point x="1268" y="245" type="curve"/>
      <point x="1270" y="322"/>
      <point x="1289" y="437"/>
      <point x="1311" y="574" type="curve"/>
      <point x="1218" y="302"/>
      <point x="1046" y="25"/>
      <point x="871" y="25" type="curve" smooth="yes"/>
      <point x="748" y="25"/>
      <point x="617" y="177"/>
      <point x="617" y="430" type="curve" smooth="yes"/>
      <point x="617" y="687"/>
      <point x="783" y="1054"/>
      <point x="1073" y="1054" type="curve" smooth="yes"/>
      <point x="1166" y="1054"/>
      <point x="1292" y="1026"/>
      <point x="1362" y="989" type="curve"/>
      <point x="1372" y="1022"/>
      <point x="1383" y="1043"/>
      <point x="1404" y="1038" type="curve"/>
      <point x="1492" y="1009" type="line"/>
      <point x="1457" y="868"/>
      <point x="1420" y="578"/>
      <point x="1399" y="389" type="curve" smooth="yes"/>
      <point x="1383" y="247"/>
      <point x="1391" y="131"/>
      <point x="1422" y="131" type="curve" smooth="yes"/>
      <point x="1567" y="131"/>
      <point x="1792" y="386"/>
      <point x="1792" y="755" type="curve" smooth="yes"/>
      <point x="1792" y="1173"/>
      <point x="1491" y="1339"/>
      <point x="1155" y="1339" type="curve" smooth="yes"/>
      <point x="731" y="1339"/>
      <point x="349" y="1020"/>
      <point x="349" y="460" type="curve" smooth="yes"/>
      <point x="349" y="-71"/>
      <point x="702" y="-274"/>
      <point x="1079" y="-274" type="curve" smooth="yes"/>
      <point x="1229" y="-274"/>
      <point x="1383" y="-233"/>
      <point x="1454" y="-195" type="curve"/>
      <point x="1482" y="-260" type="line"/>
      <point x="1394" y="-330"/>
      <point x="1195" y="-378"/>
      <point x="1024" y="-378" type="curve" smooth="yes"/>
      <point x="569" y="-378"/>
      <point x="236" y="-70"/>
    </contour>
    <contour>
      <point x="738" y="486" type="curve" smooth="yes"/>
      <point x="738" y="343"/>
      <point x="784" y="151"/>
      <point x="900" y="151" type="curve" smooth="yes"/>
      <point x="1055" y="151"/>
      <point x="1283" y="592"/>
      <point x="1331" y="868" type="curve"/>
      <point x="1285" y="908"/>
      <point x="1154" y="943"/>
      <point x="1072" y="943" type="curve" smooth="yes"/>
      <point x="844" y="943"/>
      <point x="738" y="709"/>
    </contour>
  </outline>
</glyph>
<glyph name="B" format="1">
  <advance width="1419"/>
  <unicode hex="0042"/>
  <outline>
    <contour>
      <point x="106" y="0" type="line"/>
      <point x="106" y="67" type="line"/>
      <point x="284" y="92" type="line"/>
      <point x="284" y="1462" type="line"/>
      <point x="110" y="1477" type="line"/>
      <point x="110" y="1553" type="line"/>
      <point x="351" y="1553" type="line"/>
      <point x="471" y="1555"/>
      <point x="577" y="1567"/>
      <point x="738" y="1566" type="curve" smooth="yes"/>
      <point x="1054" y="1565"/>
      <point x="1224" y="1432"/>
      <point x="1224" y="1217" type="curve" smooth="yes"/>
      <point x="1224" y="1034"/>
      <point x="1131" y="872"/>
      <point x="919" y="828" type="curve"/>
      <point x="1139" y="828"/>
      <point x="1326" y="691"/>
      <point x="1326" y="458" type="curve" smooth="yes"/>
      <point x="1326" y="184"/>
      <point x="1119" y="-14"/>
      <point x="679" y="-14" type="curve" smooth="yes"/>
      <point x="565" y="-14"/>
      <point x="431" y="-3"/>
      <point x="352" y="0" type="curve"/>
    </contour>
    <contour>
      <point x="431" y="863" type="line"/>
      <point x="503" y="852"/>
      <point x="662" y="857"/>
      <point x="729" y="857" type="curve" smooth="yes"/>
      <point x="925" y="857"/>
      <point x="1084" y="957"/>
      <point x="1084" y="1189" type="curve" smooth="yes"/>
      <point x="1084" y="1401"/>
      <point x="909" y="1483"/>
      <point x="706" y="1483" type="curve" smooth="yes"/>
      <point x="627" y="1483"/>
      <point x="488" y="1481"/>
      <point x="433" y="1468" type="curve"/>
    </contour>
    <contour>
      <point x="432" y="103" type="line"/>
      <point x="481" y="85"/>
      <point x="630" y="72"/>
      <point x="715" y="72" type="curve" smooth="yes"/>
      <point x="940" y="72"/>
      <point x="1171" y="150"/>
      <point x="1171" y="429" type="curve" smooth="yes"/>
      <point x="1171" y="677"/>
      <point x="1000" y="764"/>
      <point x="762" y="764" type="curve" smooth="yes"/>
      <point x="669" y="764"/>
      <point x="506" y="766"/>
      <point x="432" y="760" type="curve"/>
    </contour>
  </outline>
</glyph>
<glyph name="F" format="1">
  <advance width="1238"/>
  <unicode hex="0046"/>
  <outline>
    <contour>
      <point x="104" y="0" type="line"/>
      <point x="104" y="67" type="line"/>
      <point x="295" y="92" type="line"/>
      <point x="295" y="1461" type="line"/>
      <point x="119" y="1477" type="line"/>
      <point x="119" y="1553" type="line"/>
      <point x="1178" y="1553" type="line"/>
      <point x="1200" y="1268" type="line"/>
      <point x="1122" y="1266" type="line"/>
      <point x="1076" y="1456" type="line"/>
      <point x="443" y="1468" type="line"/>
      <point x="443" y="834" type="line"/>
      <point x="906" y="842" type="line"/>
      <point x="939" y="998" type="line"/>
      <point x="1015" y="998" type="line"/>
      <point x="1015" y="578" type="line"/>
      <point x="930" y="578" type="line"/>
      <point x="906" y="744" type="line"/>
      <point x="442" y="751" type="line"/>
      <point x="443" y="91" type="line"/>
      <point x="752" y="73" type="line"/>
      <point x="752" y="0" type="line"/>
    </contour>
  </outline>
</glyph>
<glyph name="G" format="1">
  <advance width="1536"/>
  <unicode hex="0047"/>
  <outline>
    <contour>
      <point x="86" y="731" type="curve" smooth="yes"/>
      <point x="86" y="1242"/>
      <point x="452" y="1566"/>
      <point x="889" y="1566" type="curve" smooth="yes"/>
      <point x="1130" y="1566"/>
      <point x="1259" y="1516"/>
      <point x="1337" y="1499" type="curve"/>
      <point x="1324" y="1226" type="line"/>
      <point x="1241" y="1226" type="line"/>
      <point x="1201" y="1403" type="line"/>
      <point x="1160" y="1435"/>
      <point x="1033" y="1480"/>
      <point x="844" y="1478" type="curve" smooth="yes"/>
      <point x="532" y="1475"/>
      <point x="239" y="1223"/>
      <point x="239" y="777" type="curve" smooth="yes"/>
      <point x="239" y="412"/>
      <point x="417" y="56"/>
      <point x="822" y="56" type="curve" smooth="yes"/>
      <point x="950" y="56"/>
      <point x="1116" y="86"/>
      <point x="1192" y="153" type="curve"/>
      <point x="1192" y="618" type="line"/>
      <point x="915" y="633" type="line"/>
      <point x="915" y="708" type="line"/>
      <point x="1476" y="708" type="line"/>
      <point x="1476" y="633" type="line"/>
      <point x="1340" y="616" type="line"/>
      <point x="1340" y="75" type="line"/>
      <point x="1252" y="68"/>
      <point x="1024" y="-28"/>
      <point x="782" y="-28" type="curve" smooth="yes"/>
      <point x="369" y="-28"/>
      <point x="86" y="293"/>
    </contour>
  </outline>
</glyph>
<glyph name="H" format="1">
  <advance width="1706"/>
  <unicode hex="0048"/>
  <outline>
    <contour>
      <point x="106" y="0" type="line"/>
      <point x="106" y="67" type="line"/>
      <point x="278" y="92" type="line"/>
      <point x="278" y="1462" type="line"/>
      <point x="113" y="1477" type="line"/>
      <point x="113" y="1553" type="line"/>
      <point x="588" y="1553" type="line"/>
      <point x="588" y="1477" type="line"/>
      <point x="426" y="1462" type="line"/>
      <point x="426" y="794" type="line"/>
      <point x="1263" y="794" type="line"/>
      <point x="1263" y="1462" type="line"/>
      <point x="1099" y="1477" type="line"/>
      <point x="1099" y="1553" type="line"/>
      <point x="1569" y="1553" type="line"/>
      <point x="1569" y="1477" type="line"/>
      <point x="1411" y="1462" type="line"/>
      <point x="1411" y="92" type="line"/>
      <point x="1585" y="67" type="line"/>
      <point x="1585" y="0" type="line"/>
      <point x="1093" y="0" type="line"/>
      <point x="1093" y="67" type="line"/>
      <point x="1263" y="91" type="line"/>
      <point x="1263" y="703" type="line"/>
      <point x="426" y="703" type="line"/>
      <point x="426" y="91" type="line"/>
      <point x="596" y="67" type="line"/>
      <point x="596" y="0" type="line"/>
    </contour>
  </outline>
</glyph>
<glyph name="I" format="1">
  <advance width="763"/>
  <unicode hex="0049"/>
  <outline>
    <contour>
      <point x="136" y="0" type="line"/>
      <point x="136" y="67" type="line"/>
      <point x="305" y="91" type="line"/>
      <point x="305" y="1462" type="line"/>
      <point x="139" y="1477" type="line"/>
      <point x="139" y="1553" type="line"/>
      <point x="621" y="1553" type="line"/>
      <point x="621" y="1477" type="line"/>
      <point x="453" y="1462" type="line"/>
      <point x="453" y="91" type="line"/>
      <point x="629" y="67" type="line"/>
      <point x="629" y="0" type="line"/>
    </contour>
  </outline>
</glyph>
<glyph name="K" format="1">
  <advance width="1419"/>
  <unicode hex="004B"/>
  <outline>
    <contour>
      <point x="106" y="0" type="line"/>
      <point x="106" y="67" type="line"/>
      <point x="268" y="91" type="line"/>
      <point x="268" y="1463" type="line"/>
      <point x="109" y="1477" type="line"/>
      <point x="109" y="1553" type="line"/>
      <point x="578" y="1553" type="line"/>
      <point x="578" y="1477" type="line"/>
      <point x="417" y="1463" type="line"/>
      <point x="417" y="716" type="line"/>
      <point x="1056" y="1461" type="line"/>
      <point x="896" y="1477" type="line"/>
      <point x="896" y="1499"/>
      <point x="895" y="1531"/>
      <point x="895" y="1553" type="curve"/>
      <point x="1356" y="1553" type="line"/>
      <point x="1356" y="1477" type="line"/>
      <point x="1197" y="1461" type="line"/>
      <point x="695" y="894" type="line"/>
      <point x="818" y="764"/>
      <point x="1206" y="94"/>
      <point x="1273" y="96" type="curve"/>
      <point x="1425" y="67" type="line"/>
      <point x="1425" y="0" type="line"/>
      <point x="1164" y="0" type="line"/>
      <point x="1093" y="-1"/>
      <point x="750" y="663"/>
      <point x="609" y="796" type="curve"/>
      <point x="417" y="580" type="line"/>
      <point x="417" y="90" type="line"/>
      <point x="594" y="67" type="line"/>
      <point x="594" y="0" type="line"/>
    </contour>
  </outline>
</glyph>
<glyph name="L" format="1">
  <advance width="1244"/>
  <unicode hex="004C"/>
  <outline>
    <contour>
      <point x="106" y="0" type="line"/>
      <point x="106" y="67" type="line"/>
      <point x="286" y="92" type="line"/>
      <point x="286" y="1454" type="line"/>
      <point x="110" y="1469" type="line"/>
      <point x="110" y="1553" type="line"/>
      <point x="629" y="1553" type="line"/>
      <point x="629" y="1469" type="line"/>
      <point x="434" y="1454" type="line"/>
      <point x="433" y="86" type="line"/>
      <point x="1038" y="105" type="line"/>
      <point x="1146" y="350" type="line"/>
      <point x="1214" y="318" type="line"/>
      <point x="1149" y="0" type="line"/>
    </contour>
  </outline>
</glyph>
<glyph name="M" format="1">
  <advance width="1977"/>
  <unicode hex="004D"/>
  <outline>
    <contour>
      <point x="77" y="0" type="line"/>
      <point x="77" y="67" type="line"/>
      <point x="263" y="91" type="line"/>
      <point x="365" y="1455" type="line"/>
      <point x="164" y="1470" type="line"/>
      <point x="164" y="1553" type="line"/>
      <point x="575" y="1553" type="line"/>
      <point x="976" y="374" type="line"/>
      <point x="1018" y="235" type="line"/>
      <point x="1062" y="377" type="line"/>
      <point x="1442" y="1553" type="line"/>
      <point x="1828" y="1553" type="line"/>
      <point x="1828" y="1470" type="line"/>
      <point x="1631" y="1455" type="line"/>
      <point x="1749" y="91" type="line"/>
      <point x="1943" y="67" type="line"/>
      <point x="1943" y="0" type="line"/>
      <point x="1418" y="0" type="line"/>
      <point x="1418" y="67" type="line"/>
      <point x="1609" y="91" type="line"/>
      <point x="1521" y="1118" type="line"/>
      <point x="1507" y="1458" type="line"/>
      <point x="1455" y="1267" type="line"/>
      <point x="1025" y="-15" type="line"/>
      <point x="972" y="-15" type="line"/>
      <point x="557" y="1159" type="line" smooth="yes"/>
      <point x="529" y="1239"/>
      <point x="485" y="1368"/>
      <point x="454" y="1459" type="curve"/>
      <point x="439" y="1064" type="line"/>
      <point x="382" y="92" type="line"/>
      <point x="595" y="67" type="line"/>
      <point x="595" y="0" type="line"/>
    </contour>
  </outline>
</glyph>
<glyph name="N" format="1">
  <advance width="1662"/>
  <unicode hex="004E"/>
  <outline>
    <contour>
      <point x="104" y="0" type="line"/>
      <point x="104" y="67" type="line"/>
      <point x="280" y="90" type="line"/>
      <point x="280" y="1454" type="line"/>
      <point x="110" y="1469" type="line"/>
      <point x="110" y="1553" type="line"/>
      <point x="436" y="1553" type="line"/>
      <point x="1155" y="399" type="line"/>
      <point x="1303" y="128" type="line"/>
      <point x="1303" y="1455" type="line"/>
      <point x="1129" y="1470" type="line"/>
      <point x="1129" y="1553" type="line"/>
      <point x="1585" y="1553" type="line"/>
      <point x="1585" y="1470" type="line"/>
      <point x="1412" y="1455" type="line"/>
      <point x="1412" y="0" type="line"/>
      <point x="1250" y="0" type="line"/>
      <point x="539" y="1112" type="line"/>
      <point x="391" y="1392" type="line"/>
      <point x="391" y="1084"/>
      <point x="390" y="391"/>
      <point x="390" y="91" type="curve"/>
      <point x="596" y="67" type="line"/>
      <point x="596" y="0" type="line"/>
    </contour>
  </outline>
</glyph>
<glyph name="S" format="1">
  <advance width="1229"/>
  <unicode hex="0053"/>
  <outline>
    <contour>
      <point x="154" y="63" type="curve"/>
      <point x="154" y="362" type="line"/>
      <point x="227" y="362" type="line"/>
      <point x="274" y="158" type="line"/>
      <point x="358" y="79"/>
      <point x="511" y="57"/>
      <point x="629" y="57" type="curve" smooth="yes"/>
      <point x="799" y="57"/>
      <point x="988" y="136"/>
      <point x="988" y="355" type="curve"/>
      <point x="987" y="539"/>
      <point x="794" y="636"/>
      <point x="595" y="733" type="curve" smooth="yes"/>
      <point x="383" y="837"/>
      <point x="165" y="950"/>
      <point x="164" y="1177" type="curve"/>
      <point x="164" y="1458"/>
      <point x="444" y="1566"/>
      <point x="650" y="1566" type="curve" smooth="yes"/>
      <point x="855" y="1566"/>
      <point x="975" y="1522"/>
      <point x="1034" y="1487" type="curve"/>
      <point x="1034" y="1220" type="line"/>
      <point x="966" y="1220" type="line"/>
      <point x="907" y="1419" type="line"/>
      <point x="849" y="1470"/>
      <point x="743" y="1489"/>
      <point x="637" y="1488" type="curve"/>
      <point x="493" y="1488"/>
      <point x="301" y="1411"/>
      <point x="301" y="1200" type="curve"/>
      <point x="302" y="1031"/>
      <point x="479" y="939"/>
      <point x="669" y="849" type="curve"/>
      <point x="888" y="743"/>
      <point x="1126" y="630"/>
      <point x="1126" y="394" type="curve" smooth="yes"/>
      <point x="1126" y="101"/>
      <point x="891" y="-23"/>
      <point x="610" y="-23" type="curve" smooth="yes"/>
      <point x="411" y="-23"/>
      <point x="211" y="28"/>
    </contour>
  </outline>
</glyph>
<glyph name="T" format="1">
  <advance width="1270"/>
  <unicode hex="0054"/>
  <outline>
    <contour>
      <point x="316" y="0" type="line"/>
      <point x="316" y="67" type="line"/>
      <point x="578" y="92" type="line"/>
      <point x="578" y="1469" type="line"/>
      <point x="162" y="1452" type="line"/>
      <point x="101" y="1251" type="line"/>
      <point x="30" y="1249" type="line"/>
      <point x="55" y="1553" type="line"/>
      <point x="1246" y="1553" type="line"/>
      <point x="1244" y="1246" type="line"/>
      <point x="1179" y="1237" type="line"/>
      <point x="1138" y="1452" type="line"/>
      <point x="726" y="1469" type="line"/>
      <point x="726" y="92" type="line"/>
      <point x="1002" y="67" type="line"/>
      <point x="1002" y="0" type="line"/>
    </contour>
  </outline>
</glyph>
<glyph name="V" format="1">
  <advance width="1425"/>
  <unicode hex="0056"/>
  <outline>
    <contour>
      <point x="685" y="-20" type="line"/>
      <point x="143" y="1463" type="line"/>
      <point x="5" y="1477" type="line"/>
      <point x="5" y="1553" type="line"/>
      <point x="511" y="1553" type="line"/>
      <point x="511" y="1477" type="line"/>
      <point x="313" y="1462" type="line"/>
      <point x="702" y="338" type="line"/>
      <point x="761" y="149" type="line"/>
      <point x="813" y="339" type="line"/>
      <point x="1156" y="1462" type="line"/>
      <point x="989" y="1477" type="line"/>
      <point x="989" y="1552" type="line"/>
      <point x="1427" y="1552" type="line"/>
      <point x="1427" y="1477" type="line"/>
      <point x="1284" y="1462" type="line"/>
      <point x="794" y="-20" type="line"/>
    </contour>
  </outline>
</glyph>
<glyph name="W" format="1">
  <advance width="2101"/>
  <unicode hex="0057"/>
  <outline>
    <contour>
      <point x="642" y="-20" type="line"/>
      <point x="141" y="1462" type="line"/>
      <point x="5" y="1476" type="line"/>
      <point x="5" y="1553" type="line"/>
      <point x="503" y="1553" type="line"/>
      <point x="503" y="1476" type="line"/>
      <point x="305" y="1462" type="line"/>
      <point x="658" y="342" type="line"/>
      <point x="717" y="156" type="line"/>
      <point x="772" y="334" type="line"/>
      <point x="1012" y="1281" type="line"/>
      <point x="958" y="1462" type="line"/>
      <point x="793" y="1476" type="line"/>
      <point x="793" y="1553" type="line"/>
      <point x="1305" y="1553" type="line"/>
      <point x="1305" y="1476" type="line"/>
      <point x="1114" y="1462" type="line"/>
      <point x="1418" y="329" type="line"/>
      <point x="1464" y="150" type="line"/>
      <point x="1511" y="354" type="line"/>
      <point x="1805" y="1462" type="line"/>
      <point x="1623" y="1476" type="line"/>
      <point x="1623" y="1553" type="line"/>
      <point x="2089" y="1553" type="line"/>
      <point x="2089" y="1476" type="line"/>
      <point x="1930" y="1462" type="line"/>
      <point x="1500" y="-20" type="line"/>
      <point x="1381" y="-20" type="line"/>
      <point x="1068" y="1080" type="line"/>
      <point x="768" y="-20" type="line"/>
    </contour>
  </outline>
</glyph>
<glyph name="bracketright" format="1">
  <advance width="858"/>
  <unicode hex="005D"/>
  <outline>
    <contour>
      <point x="239" y="-77" type="curve"/>
      <point x="530" y="-75" type="line"/>
      <point x="530" y="1609" type="line"/>
      <point x="239" y="1609" type="line"/>
      <point x="239" y="1629"/>
      <point x="238" y="1656"/>
      <point x="238" y="1676" type="curve"/>
      <point x="315" y="1692"/>
      <point x="400" y="1709"/>
      <point x="490" y="1709" type="curve" smooth="yes"/>
      <point x="629" y="1709"/>
      <point x="654" y="1672"/>
      <point x="654" y="1488" type="curve" smooth="yes"/>
      <point x="654" y="27" type="line" smooth="yes"/>
      <point x="654" y="-136"/>
      <point x="628" y="-178"/>
      <point x="508" y="-178" type="curve" smooth="yes"/>
      <point x="412" y="-178"/>
      <point x="325" y="-163"/>
      <point x="238" y="-143" type="curve"/>
      <point x="238" y="-124"/>
      <point x="239" y="-96"/>
    </contour>
  </outline>
</glyph>
<glyph name="asciicircum" format="1">
  <advance width="1289"/>
  <unicode hex="005E"/>
  <outline>
    <contour>
      <point x="172" y="564" type="curve"/>
      <point x="568" y="1531" type="line"/>
      <point x="717" y="1531" type="line"/>
      <point x="1117" y="564" type="line"/>
      <point x="1077" y="564"/>
      <point x="1020" y="563"/>
      <point x="981" y="563" type="curve"/>
      <point x="636" y="1379" type="line"/>
      <point x="293" y="563" type="line"/>
      <point x="258" y="563"/>
      <point x="207" y="564"/>
    </contour>
  </outline>
</glyph>
<glyph name="grave" format="1">
  <advance width="884"/>
  <unicode hex="0060"/>
  <outline>
    <contour>
      <point x="556" y="1343" type="line"/>
      <point x="434" y="1425"/>
      <point x="245" y="1560"/>
      <point x="179" y="1661" type="curve"/>
      <point x="285" y="1770" type="line"/>
      <point x="598" y="1386" type="line"/>
    </contour>
  </outline>
</glyph>
<glyph name="d" format="1">
  <advance width="1269"/>
  <unicode hex="0064"/>
  <outline>
    <contour>
      <point x="548" y="-24" type="curve" smooth="yes"/>
      <point x="315" y="-24"/>
      <point x="107" y="149"/>
      <point x="107" y="541" type="curve" smooth="yes"/>
      <point x="107" y="898"/>
      <point x="363" y="1153"/>
      <point x="680" y="1153" type="curve" smooth="yes"/>
      <point x="799" y="1153"/>
      <point x="864" y="1125"/>
      <point x="906" y="1109" type="curve"/>
      <point x="906" y="1497" type="line"/>
      <point x="701" y="1521" type="line"/>
      <point x="701" y="1590" type="line"/>
      <point x="1012" y="1622" type="line"/>
      <point x="1050" y="1602" type="line"/>
      <point x="1050" y="71" type="line"/>
      <point x="1186" y="71" type="line"/>
      <point x="1186" y="10" type="line"/>
      <point x="1143" y="-9"/>
      <point x="1058" y="-23"/>
      <point x="1003" y="-23" type="curve" smooth="yes"/>
      <point x="954" y="-23"/>
      <point x="911" y="-16"/>
      <point x="911" y="66" type="curve" smooth="yes"/>
      <point x="911" y="95" type="line"/>
      <point x="858" y="48"/>
      <point x="736" y="-24"/>
    </contour>
    <contour>
      <point x="604" y="81" type="curve" smooth="yes"/>
      <point x="647" y="81"/>
      <point x="685" y="85"/>
      <point x="718" y="92" type="curve" smooth="yes"/>
      <point x="814" y="111"/>
      <point x="873" y="152"/>
      <point x="906" y="183" type="curve"/>
      <point x="906" y="983" type="line"/>
      <point x="879" y="1012"/>
      <point x="826" y="1067"/>
      <point x="663" y="1067" type="curve" smooth="yes"/>
      <point x="467" y="1067"/>
      <point x="256" y="922"/>
      <point x="251" y="575" type="curve" smooth="yes"/>
      <point x="246" y="243"/>
      <point x="408" y="81"/>
    </contour>
  </outline>
</glyph>
<glyph name="f" format="1">
  <advance width="837"/>
  <unicode hex="0066"/>
  <outline>
    <contour>
      <point x="119" y="0" type="line"/>
      <point x="119" y="68" type="line"/>
      <point x="323" y="85" type="line"/>
      <point x="323" y="996" type="line"/>
      <point x="97" y="996" type="line"/>
      <point x="97" y="1056" type="line"/>
      <point x="323" y="1100" type="line"/>
      <point x="323" y="1205" type="line" smooth="yes"/>
      <point x="323" y="1503"/>
      <point x="545" y="1682"/>
      <point x="721" y="1682" type="curve" smooth="yes"/>
      <point x="802" y="1682"/>
      <point x="838" y="1675"/>
      <point x="864" y="1665" type="curve"/>
      <point x="864" y="1536" type="line"/>
      <point x="840" y="1550"/>
      <point x="781" y="1565"/>
      <point x="692" y="1565" type="curve" smooth="yes"/>
      <point x="580" y="1565"/>
      <point x="468" y="1518"/>
      <point x="468" y="1261" type="curve" smooth="yes"/>
      <point x="468" y="1100" type="line"/>
      <point x="795" y="1100" type="line"/>
      <point x="795" y="996" type="line"/>
      <point x="468" y="996" type="line"/>
      <point x="468" y="84" type="line"/>
      <point x="709" y="68" type="line"/>
      <point x="709" y="0" type="line"/>
    </contour>
  </outline>
</glyph>
<glyph name="i" format="1">
  <advance width="683"/>
  <unicode hex="0069"/>
  <outline>
    <contour>
      <point x="340" y="1415" type="curve" smooth="yes"/>
      <point x="289" y="1415"/>
      <point x="241" y="1452"/>
      <point x="241" y="1512" type="curve" smooth="yes"/>
      <point x="241" y="1578"/>
      <point x="302" y="1627"/>
      <point x="358" y="1627" type="curve" smooth="yes"/>
      <point x="427" y="1627"/>
      <point x="458" y="1583"/>
      <point x="458" y="1529" type="curve" smooth="yes"/>
      <point x="458" y="1460"/>
      <point x="399" y="1415"/>
    </contour>
    <contour>
      <point x="140" y="0" type="line"/>
      <point x="140" y="68" type="line"/>
      <point x="305" y="84" type="line"/>
      <point x="305" y="971" type="line"/>
      <point x="161" y="1021" type="line"/>
      <point x="161" y="1072" type="line"/>
      <point x="406" y="1133" type="line"/>
      <point x="444" y="1114" type="line"/>
      <point x="444" y="85" type="line"/>
      <point x="611" y="68" type="line"/>
      <point x="611" y="0" type="line"/>
    </contour>
  </outline>
</glyph>
<glyph name="q" format="1">
  <advance width="1242"/>
  <unicode hex="0071"/>
  <outline>
    <contour>
      <point x="544" y="-28" type="curve" smooth="yes"/>
      <point x="389" y="-28"/>
      <point x="104" y="57"/>
      <point x="104" y="543" type="curve" smooth="yes"/>
      <point x="104" y="886"/>
      <point x="349" y="1153"/>
      <point x="688" y="1153" type="curve" smooth="yes"/>
      <point x="777" y="1153"/>
      <point x="865" y="1135"/>
      <point x="925" y="1104" type="curve"/>
      <point x="1011" y="1136" type="line"/>
      <point x="1048" y="1121" type="line"/>
      <point x="1048" y="-419" type="line"/>
      <point x="1194" y="-437" type="line"/>
      <point x="1194" y="-511" type="line"/>
      <point x="679" y="-511" type="line"/>
      <point x="679" y="-437" type="line"/>
      <point x="904" y="-418" type="line"/>
      <point x="904" y="-47" type="line"/>
      <point x="908" y="103" type="line"/>
      <point x="856" y="57"/>
      <point x="740" y="-28"/>
    </contour>
    <contour>
      <point x="595" y="78" type="curve" smooth="yes"/>
      <point x="760" y="78"/>
      <point x="860" y="141"/>
      <point x="904" y="185" type="curve"/>
      <point x="904" y="987" type="line"/>
      <point x="840" y="1055"/>
      <point x="751" y="1070"/>
      <point x="663" y="1070" type="curve" smooth="yes"/>
      <point x="458" y="1070"/>
      <point x="252" y="913"/>
      <point x="247" y="566" type="curve" smooth="yes"/>
      <point x="243" y="248"/>
      <point x="384" y="78"/>
    </contour>
  </outline>
</glyph>
<glyph name="r" format="1">
  <advance width="923"/>
  <unicode hex="0072"/>
  <outline>
    <contour>
      <point x="106" y="0" type="line"/>
      <point x="106" y="68" type="line"/>
      <point x="282" y="87" type="line"/>
      <point x="282" y="968" type="line"/>
      <point x="135" y="1021" type="line"/>
      <point x="135" y="1072" type="line"/>
      <point x="371" y="1133" type="line"/>
      <point x="409" y="1114" type="line"/>
      <point x="409" y="974" type="line"/>
      <point x="466" y="1043"/>
      <point x="648" y="1139"/>
      <point x="783" y="1139" type="curve" smooth="yes"/>
      <point x="827" y="1139"/>
      <point x="867" y="1137"/>
      <point x="882" y="1132" type="curve"/>
      <point x="882" y="978" type="line"/>
      <point x="845" y="992"/>
      <point x="804" y="1005"/>
      <point x="723" y="1005" type="curve" smooth="yes"/>
      <point x="594" y="1004"/>
      <point x="488" y="954"/>
      <point x="427" y="915" type="curve"/>
      <point x="427" y="87" type="line"/>
      <point x="730" y="68" type="line"/>
      <point x="730" y="0" type="line"/>
    </contour>
  </outline>
</glyph>
<glyph name="s" format="1">
  <advance width="1048"/>
  <unicode hex="0073"/>
  <outline>
    <contour>
      <point x="160" y="61" type="curve"/>
      <point x="160" y="279" type="line"/>
      <point x="231" y="279" type="line"/>
      <point x="263" y="143" type="line"/>
      <point x="331" y="86"/>
      <point x="415" y="65"/>
      <point x="505" y="61" type="curve" smooth="yes"/>
      <point x="668" y="55"/>
      <point x="795" y="117"/>
      <point x="795" y="266" type="curve" smooth="yes"/>
      <point x="795" y="409"/>
      <point x="634" y="456"/>
      <point x="485" y="522" type="curve" smooth="yes"/>
      <point x="326" y="593"/>
      <point x="171" y="681"/>
      <point x="174" y="857" type="curve" smooth="yes"/>
      <point x="178" y="1058"/>
      <point x="387" y="1147"/>
      <point x="565" y="1152" type="curve" smooth="yes"/>
      <point x="695" y="1156"/>
      <point x="825" y="1116"/>
      <point x="878" y="1080" type="curve"/>
      <point x="878" y="879" type="line"/>
      <point x="810" y="879" type="line"/>
      <point x="776" y="1004" type="line"/>
      <point x="733" y="1044"/>
      <point x="660" y="1073"/>
      <point x="572" y="1073" type="curve" smooth="yes"/>
      <point x="410" y="1074"/>
      <point x="315" y="996"/>
      <point x="313" y="882" type="curve" smooth="yes"/>
      <point x="311" y="752"/>
      <point x="442" y="702"/>
      <point x="594" y="631" type="curve"/>
      <point x="742" y="565"/>
      <point x="933" y="497"/>
      <point x="933" y="298" type="curve" smooth="yes"/>
      <point x="933" y="87"/>
      <point x="751" y="-24"/>
      <point x="508" y="-24" type="curve" smooth="yes"/>
      <point x="388" y="-24"/>
      <point x="261" y="5"/>
    </contour>
  </outline>
</glyph>
<glyph name="t" format="1">
  <advance width="862"/>
  <unicode hex="0074"/>
  <outline>
    <contour>
      <point x="272" y="255" type="curve" smooth="yes"/>
      <point x="272" y="1019" type="line"/>
      <point x="112" y="1019" type="line"/>
      <point x="112" y="1079" type="line"/>
      <point x="225" y="1100"/>
      <point x="260" y="1097"/>
      <point x="288" y="1148" type="curve"/>
      <point x="304" y="1184"/>
      <point x="334" y="1331"/>
      <point x="338" y="1386" type="curve"/>
      <point x="414" y="1386" type="line"/>
      <point x="414" y="1116" type="line"/>
      <point x="789" y="1116" type="line"/>
      <point x="789" y="1019" type="line"/>
      <point x="414" y="1019" type="line"/>
      <point x="414" y="417" type="line" smooth="yes"/>
      <point x="414" y="148"/>
      <point x="430" y="82"/>
      <point x="546" y="82" type="curve" smooth="yes"/>
      <point x="641" y="82"/>
      <point x="741" y="125"/>
      <point x="774" y="147" type="curve"/>
      <point x="799" y="76" type="line"/>
      <point x="739" y="10"/>
      <point x="585" y="-24"/>
      <point x="493" y="-24" type="curve" smooth="yes"/>
      <point x="348" y="-24"/>
      <point x="272" y="52"/>
    </contour>
  </outline>
</glyph>
<glyph name="v" format="1">
  <advance width="1188"/>
  <unicode hex="0076"/>
  <outline>
    <contour>
      <point x="557" y="-24" type="line"/>
      <point x="111" y="1022" type="line"/>
      <point x="2" y="1038" type="line"/>
      <point x="2" y="1119" type="line"/>
      <point x="420" y="1119" type="line"/>
      <point x="420" y="1038" type="line"/>
      <point x="275" y="1021" type="line"/>
      <point x="532" y="395" type="line"/>
      <point x="626" y="122" type="line"/>
      <point x="718" y="387" type="line"/>
      <point x="947" y="1020" type="line"/>
      <point x="804" y="1037" type="line"/>
      <point x="804" y="1119" type="line"/>
      <point x="1189" y="1119" type="line"/>
      <point x="1189" y="1038" type="line"/>
      <point x="1072" y="1019" type="line"/>
      <point x="661" y="-24" type="line"/>
    </contour>
  </outline>
</glyph>
<glyph name="w" format="1">
  <advance width="1692"/>
  <unicode hex="0077"/>
  <outline>
    <contour>
      <point x="463" y="-25" type="line"/>
      <point x="118" y="1021" type="line"/>
      <point x="2" y="1037" type="line"/>
      <point x="2" y="1119" type="line"/>
      <point x="424" y="1119" type="line"/>
      <point x="424" y="1037" type="line"/>
      <point x="266" y="1020" type="line"/>
      <point x="496" y="283" type="line"/>
      <point x="535" y="123" type="line"/>
      <point x="570" y="282" type="line"/>
      <point x="800" y="1119" type="line"/>
      <point x="928" y="1119" type="line"/>
      <point x="1161" y="283" type="line"/>
      <point x="1205" y="115" type="line"/>
      <point x="1246" y="277" type="line"/>
      <point x="1442" y="1021" type="line"/>
      <point x="1305" y="1037" type="line"/>
      <point x="1305" y="1119" type="line"/>
      <point x="1690" y="1119" type="line"/>
      <point x="1690" y="1038" type="line"/>
      <point x="1561" y="1019" type="line"/>
      <point x="1259" y="-25" type="line"/>
      <point x="1122" y="-25" type="line"/>
      <point x="886" y="786" type="line"/>
      <point x="855" y="946" type="line"/>
      <point x="814" y="786" type="line"/>
      <point x="588" y="-25" type="line"/>
    </contour>
  </outline>
</glyph>
<glyph name="braceleft" format="1">
  <advance width="1013"/>
  <unicode hex="007B"/>
  <outline>
    <contour>
      <point x="347" y="44" type="curve" smooth="yes"/>
      <point x="347" y="576" type="line" smooth="yes"/>
      <point x="347" y="628"/>
      <point x="180" y="704"/>
      <point x="90" y="729" type="curve"/>
      <point x="90" y="826" type="line"/>
      <point x="178" y="851"/>
      <point x="347" y="912"/>
      <point x="347" y="966" type="curve" smooth="yes"/>
      <point x="347" y="1490" type="line" smooth="yes"/>
      <point x="347" y="1672"/>
      <point x="372" y="1710"/>
      <point x="512" y="1710" type="curve" smooth="yes"/>
      <point x="621" y="1710"/>
      <point x="683" y="1692"/>
      <point x="763" y="1676" type="curve"/>
      <point x="763" y="1656"/>
      <point x="762" y="1629"/>
      <point x="762" y="1609" type="curve"/>
      <point x="471" y="1609" type="line"/>
      <point x="471" y="969" type="line" smooth="yes"/>
      <point x="471" y="916"/>
      <point x="439" y="883"/>
      <point x="392" y="854" type="curve" smooth="yes"/>
      <point x="340" y="823"/>
      <point x="293" y="803"/>
      <point x="235" y="776" type="curve"/>
      <point x="299" y="746"/>
      <point x="353" y="720"/>
      <point x="406" y="681" type="curve"/>
      <point x="445" y="651"/>
      <point x="471" y="617"/>
      <point x="471" y="573" type="curve" smooth="yes"/>
      <point x="471" y="-75" type="line"/>
      <point x="762" y="-75" type="line"/>
      <point x="762" y="-95"/>
      <point x="763" y="-124"/>
      <point x="763" y="-143" type="curve"/>
      <point x="677" y="-162"/>
      <point x="607" y="-178"/>
      <point x="498" y="-178" type="curve" smooth="yes"/>
      <point x="372" y="-178"/>
      <point x="347" y="-140"/>
    </contour>
  </outline>
</glyph>
<glyph name="asciitilde" format="1">
  <advance width="1257"/>
  <unicode hex="007E"/>
  <outline>
    <contour>
      <point x="208" y="796" type="curve"/>
      <point x="153" y="865" type="line"/>
      <point x="211" y="957"/>
      <point x="329" y="1046"/>
      <point x="476" y="1046" type="curve" smooth="yes"/>
      <point x="631" y="1046"/>
      <point x="696" y="862"/>
      <point x="820" y="862" type="curve" smooth="yes"/>
      <point x="924" y="862"/>
      <point x="993" y="927"/>
      <point x="1045" y="980" type="curve"/>
      <point x="1101" y="912" type="line"/>
      <point x="1042" y="819"/>
      <point x="924" y="730"/>
      <point x="777" y="730" type="curve" smooth="yes"/>
      <point x="623" y="730"/>
      <point x="558" y="915"/>
      <point x="433" y="915" type="curve" smooth="yes"/>
      <point x="328" y="915"/>
      <point x="261" y="849"/>
    </contour>
  </outline>
</glyph>
<glyph name="cent" format="1">
  <advance width="1114"/>
  <unicode hex="00A2"/>
  <outline>
    <contour>
      <point x="516" y="-14" type="line"/>
      <point x="266" y="27"/>
      <point x="129" y="249"/>
      <point x="127" y="538" type="curve" smooth="yes"/>
      <point x="125" y="884"/>
      <point x="337" y="1111"/>
      <point x="618" y="1145" type="curve"/>
      <point x="633" y="1362" type="line"/>
      <point x="731" y="1362" type="line"/>
      <point x="716" y="1149" type="line"/>
      <point x="813" y="1147"/>
      <point x="913" y="1129"/>
      <point x="958" y="1099" type="curve"/>
      <point x="958" y="885" type="line"/>
      <point x="884" y="885" type="line"/>
      <point x="843" y="1013" type="line"/>
      <point x="797" y="1049"/>
      <point x="725" y="1059"/>
      <point x="657" y="1059" type="curve" smooth="yes"/>
      <point x="450" y="1059"/>
      <point x="269" y="901"/>
      <point x="267" y="607" type="curve" smooth="yes"/>
      <point x="264" y="227"/>
      <point x="466" y="84"/>
      <point x="660" y="84" type="curve" smooth="yes"/>
      <point x="750" y="84"/>
      <point x="898" y="112"/>
      <point x="961" y="160" type="curve"/>
      <point x="988" y="88" type="line"/>
      <point x="911" y="20"/>
      <point x="761" y="-19"/>
      <point x="613" y="-21" type="curve"/>
      <point x="601" y="-216" type="line"/>
      <point x="504" y="-216" type="line"/>
    </contour>
  </outline>
</glyph>
<glyph name="currency" format="1">
  <advance width="1436"/>
  <unicode hex="00A4"/>
  <outline>
    <contour>
      <point x="241" y="274" type="line"/>
      <point x="416" y="450" type="line"/>
      <point x="363" y="515"/>
      <point x="331" y="599"/>
      <point x="331" y="690" type="curve" smooth="yes"/>
      <point x="331" y="779"/>
      <point x="361" y="860"/>
      <point x="412" y="924" type="curve"/>
      <point x="235" y="1102" type="line"/>
      <point x="302" y="1169" type="line"/>
      <point x="480" y="991" type="line"/>
      <point x="544" y="1040"/>
      <point x="624" y="1069"/>
      <point x="711" y="1069" type="curve" smooth="yes"/>
      <point x="804" y="1069"/>
      <point x="890" y="1035"/>
      <point x="956" y="980" type="curve"/>
      <point x="1134" y="1157" type="line"/>
      <point x="1201" y="1090" type="line"/>
      <point x="1020" y="909" type="line"/>
      <point x="1064" y="847"/>
      <point x="1091" y="772"/>
      <point x="1091" y="690" type="curve" smooth="yes"/>
      <point x="1091" y="602"/>
      <point x="1061" y="521"/>
      <point x="1011" y="457" type="curve"/>
      <point x="1189" y="281" type="line"/>
      <point x="1121" y="214" type="line"/>
      <point x="944" y="391" type="line"/>
      <point x="879" y="341"/>
      <point x="799" y="311"/>
      <point x="711" y="311" type="curve" smooth="yes"/>
      <point x="626" y="311"/>
      <point x="548" y="338"/>
      <point x="485" y="384" type="curve"/>
      <point x="308" y="207" type="line"/>
    </contour>
    <contour>
      <point x="442" y="690" type="curve" smooth="yes"/>
      <point x="442" y="536"/>
      <point x="562" y="409"/>
      <point x="711" y="409" type="curve" smooth="yes"/>
      <point x="859" y="409"/>
      <point x="980" y="536"/>
      <point x="980" y="690" type="curve" smooth="yes"/>
      <point x="980" y="844"/>
      <point x="859" y="971"/>
      <point x="711" y="971" type="curve" smooth="yes"/>
      <point x="562" y="971"/>
      <point x="442" y="844"/>
    </contour>
  </outline>
</glyph>
<glyph name="yen" format="1">
  <advance width="1407"/>
  <unicode hex="00A5"/>
  <outline>
    <contour>
      <point x="417" y="0" type="line"/>
      <point x="417" y="67" type="line"/>
      <point x="626" y="92" type="line"/>
      <point x="626" y="408" type="line"/>
      <point x="182" y="408" type="line"/>
      <point x="182" y="507" type="line"/>
      <point x="626" y="507" type="line"/>
      <point x="626" y="765" type="line"/>
      <point x="182" y="765" type="line"/>
      <point x="182" y="864" type="line"/>
      <point x="572" y="864" type="line"/>
      <point x="163" y="1461" type="line"/>
      <point x="25" y="1477" type="line"/>
      <point x="25" y="1553" type="line"/>
      <point x="493" y="1553" type="line"/>
      <point x="493" y="1476" type="line"/>
      <point x="332" y="1462" type="line"/>
      <point x="648" y="981" type="line"/>
      <point x="706" y="864" type="line"/>
      <point x="729" y="864" type="line"/>
      <point x="796" y="987" type="line"/>
      <point x="853" y="1085"/>
      <point x="1005" y="1326"/>
      <point x="1088" y="1462" type="curve"/>
      <point x="932" y="1477" type="line"/>
      <point x="932" y="1553" type="line"/>
      <point x="1360" y="1553" type="line"/>
      <point x="1360" y="1477" type="line"/>
      <point x="1216" y="1453" type="line"/>
      <point x="829" y="864" type="line"/>
      <point x="1210" y="864" type="line"/>
      <point x="1210" y="765" type="line"/>
      <point x="773" y="765" type="line"/>
      <point x="773" y="507" type="line"/>
      <point x="1210" y="507" type="line"/>
      <point x="1210" y="408" type="line"/>
      <point x="773" y="408" type="line"/>
      <point x="773" y="92" type="line"/>
      <point x="987" y="67" type="line"/>
      <point x="987" y="0" type="line"/>
    </contour>
  </outline>
</glyph>
<glyph name="dieresis" format="1">
  <advance width="1004"/>
  <unicode hex="00A8"/>
  <outline>
    <contour>
      <point x="712" y="1425" type="curve" smooth="yes"/>
      <point x="661" y="1425"/>
      <point x="614" y="1459"/>
      <point x="614" y="1518" type="curve" smooth="yes"/>
      <point x="614" y="1580"/>
      <point x="674" y="1629"/>
      <point x="730" y="1629" type="curve" smooth="yes"/>
      <point x="798" y="1629"/>
      <point x="829" y="1586"/>
      <point x="829" y="1534" type="curve" smooth="yes"/>
      <point x="829" y="1468"/>
      <point x="771" y="1425"/>
    </contour>
    <contour>
      <point x="257" y="1425" type="curve" smooth="yes"/>
      <point x="206" y="1425"/>
      <point x="159" y="1459"/>
      <point x="159" y="1518" type="curve" smooth="yes"/>
      <point x="159" y="1580"/>
      <point x="219" y="1629"/>
      <point x="275" y="1629" type="curve" smooth="yes"/>
      <point x="344" y="1629"/>
      <point x="374" y="1586"/>
      <point x="374" y="1534" type="curve" smooth="yes"/>
      <point x="374" y="1468"/>
      <point x="316" y="1425"/>
    </contour>
  </outline>
</glyph>
<glyph name="copyright" format="1">
  <advance width="2032"/>
  <unicode hex="00A9"/>
  <outline>
    <contour>
      <point x="1016" y="220" type="curve" smooth="yes"/>
      <point x="552" y="220"/>
      <point x="172" y="607"/>
      <point x="172" y="1069" type="curve" smooth="yes"/>
      <point x="172" y="1533"/>
      <point x="552" y="1919"/>
      <point x="1016" y="1919" type="curve" smooth="yes"/>
      <point x="1479" y="1919"/>
      <point x="1860" y="1533"/>
      <point x="1860" y="1069" type="curve" smooth="yes"/>
      <point x="1860" y="607"/>
      <point x="1479" y="220"/>
    </contour>
    <contour>
      <point x="1016" y="314" type="curve" smooth="yes"/>
      <point x="1427" y="314"/>
      <point x="1758" y="658"/>
      <point x="1758" y="1069" type="curve" smooth="yes"/>
      <point x="1758" y="1482"/>
      <point x="1427" y="1825"/>
      <point x="1016" y="1825" type="curve" smooth="yes"/>
      <point x="604" y="1825"/>
      <point x="274" y="1482"/>
      <point x="274" y="1069" type="curve" smooth="yes"/>
      <point x="274" y="658"/>
      <point x="604" y="314"/>
    </contour>
    <contour>
      <point x="1024" y="584" type="curve" smooth="yes"/>
      <point x="729" y="584"/>
      <point x="577" y="784"/>
      <point x="577" y="1061" type="curve" smooth="yes"/>
      <point x="577" y="1342"/>
      <point x="814" y="1558"/>
      <point x="1021" y="1573" type="curve" smooth="yes"/>
      <point x="1139" y="1582"/>
      <point x="1297" y="1561"/>
      <point x="1338" y="1514" type="curve"/>
      <point x="1338" y="1321" type="line"/>
      <point x="1248" y="1321" type="line"/>
      <point x="1208" y="1450" type="line"/>
      <point x="1178" y="1470"/>
      <point x="1136" y="1489"/>
      <point x="1020" y="1488" type="curve" smooth="yes"/>
      <point x="841" y="1486"/>
      <point x="717" y="1316"/>
      <point x="717" y="1096" type="curve" smooth="yes"/>
      <point x="716" y="869"/>
      <point x="851" y="687"/>
      <point x="1082" y="687" type="curve" smooth="yes"/>
      <point x="1184" y="687"/>
      <point x="1293" y="737"/>
      <point x="1325" y="767" type="curve"/>
      <point x="1348" y="706" type="line"/>
      <point x="1291" y="641"/>
      <point x="1166" y="584"/>
    </contour>
  </outline>
</glyph>
<glyph name="ordfeminine" format="1">
  <advance width="964"/>
  <unicode hex="00AA"/>
  <outline>
    <contour>
      <point x="341" y="736" type="curve" smooth="yes"/>
      <point x="244" y="736"/>
      <point x="91" y="805"/>
      <point x="91" y="972" type="curve" smooth="yes"/>
      <point x="91" y="1213"/>
      <point x="389" y="1253"/>
      <point x="663" y="1252" type="curve"/>
      <point x="663" y="1293" type="line"/>
      <point x="664" y="1472"/>
      <point x="572" y="1499"/>
      <point x="425" y="1499" type="curve" smooth="yes"/>
      <point x="318" y="1499"/>
      <point x="209" y="1471"/>
      <point x="156" y="1428" type="curve"/>
      <point x="126" y="1497" type="line"/>
      <point x="185" y="1551"/>
      <point x="337" y="1593"/>
      <point x="466" y="1593" type="curve" smooth="yes"/>
      <point x="658" y="1593"/>
      <point x="796" y="1552"/>
      <point x="795" y="1292" type="curve" smooth="yes"/>
      <point x="794" y="816" type="line"/>
      <point x="881" y="816" type="line"/>
      <point x="881" y="758" type="line"/>
      <point x="853" y="744"/>
      <point x="779" y="730"/>
      <point x="740" y="730" type="curve" smooth="yes"/>
      <point x="695" y="730"/>
      <point x="667" y="741"/>
      <point x="667" y="805" type="curve" smooth="yes"/>
      <point x="667" y="843" type="line"/>
      <point x="618" y="805"/>
      <point x="533" y="736"/>
    </contour>
    <contour>
      <point x="395" y="826" type="curve" smooth="yes"/>
      <point x="515" y="826"/>
      <point x="615" y="867"/>
      <point x="662" y="913" type="curve"/>
      <point x="662" y="1181" type="line"/>
      <point x="455" y="1181"/>
      <point x="232" y="1151"/>
      <point x="232" y="995" type="curve" smooth="yes"/>
      <point x="232" y="903"/>
      <point x="289" y="826"/>
    </contour>
  </outline>
</glyph>
<glyph name="guillemotleft" format="1">
  <advance width="1897"/>
  <unicode hex="00AB"/>
  <outline>
    <contour>
      <point x="953" y="550" type="line"/>
      <point x="953" y="676" type="line"/>
      <point x="1601" y="1075" type="line"/>
      <point x="1642" y="1008" type="line"/>
      <point x="1092" y="616" type="line"/>
      <point x="1642" y="234" type="line"/>
      <point x="1601" y="163" type="line"/>
    </contour>
    <contour>
      <point x="245" y="550" type="line"/>
      <point x="245" y="676" type="line"/>
      <point x="893" y="1075" type="line"/>
      <point x="934" y="1008" type="line"/>
      <point x="384" y="616" type="line"/>
      <point x="934" y="234" type="line"/>
      <point x="893" y="163" type="line"/>
    </contour>
  </outline>
</glyph>
<glyph name="logicalnot" format="1">
  <advance width="1220"/>
  <unicode hex="00AC"/>
  <outline>
    <contour>
      <point x="172" y="754" type="line"/>
      <point x="172" y="853" type="line"/>
      <point x="1048" y="853" type="line"/>
      <point x="1048" y="324" type="line"/>
      <point x="923" y="324" type="line"/>
      <point x="923" y="754" type="line"/>
    </contour>
  </outline>
</glyph>
<glyph name="registered" format="1">
  <advance width="2032"/>
  <unicode hex="00AE"/>
  <outline>
    <contour>
      <point x="1016" y="220" type="curve" smooth="yes"/>
      <point x="552" y="220"/>
      <point x="172" y="607"/>
      <point x="172" y="1069" type="curve" smooth="yes"/>
      <point x="172" y="1533"/>
      <point x="552" y="1919"/>
      <point x="1016" y="1919" type="curve" smooth="yes"/>
      <point x="1479" y="1919"/>
      <point x="1860" y="1533"/>
      <point x="1860" y="1069" type="curve" smooth="yes"/>
      <point x="1860" y="607"/>
      <point x="1479" y="220"/>
    </contour>
    <contour>
      <point x="1016" y="314" type="curve" smooth="yes"/>
      <point x="1427" y="314"/>
      <point x="1758" y="658"/>
      <point x="1758" y="1069" type="curve" smooth="yes"/>
      <point x="1758" y="1482"/>
      <point x="1427" y="1825"/>
      <point x="1016" y="1825" type="curve" smooth="yes"/>
      <point x="604" y="1825"/>
      <point x="274" y="1482"/>
      <point x="274" y="1069" type="curve" smooth="yes"/>
      <point x="274" y="658"/>
      <point x="604" y="314"/>
    </contour>
    <contour>
      <point x="634" y="594" type="line"/>
      <point x="634" y="660" type="line"/>
      <point x="735" y="685" type="line"/>
      <point x="735" y="1458" type="line"/>
      <point x="634" y="1481" type="line"/>
      <point x="634" y="1555" type="line"/>
      <point x="790" y="1555" type="line"/>
      <point x="872" y="1554"/>
      <point x="899" y="1560"/>
      <point x="1044" y="1562" type="curve"/>
      <point x="1272" y="1562"/>
      <point x="1383" y="1467"/>
      <point x="1386" y="1324" type="curve"/>
      <point x="1386" y="1205"/>
      <point x="1337" y="1064"/>
      <point x="1122" y="1026" type="curve"/>
      <point x="1301" y="928"/>
      <point x="1304" y="666"/>
      <point x="1471" y="666" type="curve"/>
      <point x="1471" y="592" type="line"/>
      <point x="1353" y="592" type="line" smooth="yes"/>
      <point x="1164" y="592"/>
      <point x="1191" y="925"/>
      <point x="992" y="1009" type="curve"/>
      <point x="953" y="1009"/>
      <point x="913" y="1008"/>
      <point x="871" y="1009" type="curve"/>
      <point x="871" y="681" type="line"/>
      <point x="982" y="660" type="line"/>
      <point x="982" y="594" type="line"/>
    </contour>
    <contour>
      <point x="871" y="1090" type="line"/>
      <point x="917" y="1083"/>
      <point x="961" y="1082"/>
      <point x="1028" y="1083" type="curve" smooth="yes"/>
      <point x="1163" y="1084"/>
      <point x="1248" y="1180"/>
      <point x="1248" y="1287" type="curve" smooth="yes"/>
      <point x="1248" y="1427"/>
      <point x="1147" y="1482"/>
      <point x="1024" y="1482" type="curve" smooth="yes"/>
      <point x="972" y="1482"/>
      <point x="937" y="1484"/>
      <point x="871" y="1471" type="curve"/>
    </contour>
  </outline>
</glyph>
<glyph name="degree" format="1">
  <advance width="677"/>
  <unicode hex="00B0"/>
  <outline>
    <contour>
      <point x="338" y="961" type="curve" smooth="yes"/>
      <point x="164" y="961"/>
      <point x="20" y="1104"/>
      <point x="20" y="1277" type="curve" smooth="yes"/>
      <point x="20" y="1450"/>
      <point x="164" y="1593"/>
      <point x="338" y="1593" type="curve" smooth="yes"/>
      <point x="514" y="1593"/>
      <point x="657" y="1451"/>
      <point x="657" y="1277" type="curve" smooth="yes"/>
      <point x="657" y="1104"/>
      <point x="514" y="961"/>
    </contour>
    <contour>
      <point x="339" y="1049" type="curve" smooth="yes"/>
      <point x="469" y="1049"/>
      <point x="563" y="1149"/>
      <point x="563" y="1278" type="curve" smooth="yes"/>
      <point x="563" y="1402"/>
      <point x="464" y="1505"/>
      <point x="339" y="1505" type="curve" smooth="yes"/>
      <point x="209" y="1505"/>
      <point x="114" y="1406"/>
      <point x="114" y="1278" type="curve" smooth="yes"/>
      <point x="114" y="1154"/>
      <point x="214" y="1049"/>
    </contour>
  </outline>
</glyph>
<glyph name="threesuperior" format="1">
  <advance width="1145"/>
  <unicode hex="00B3"/>
  <outline>
    <contour>
      <point x="228" y="686" type="curve"/>
      <point x="228" y="774" type="line"/>
      <point x="314" y="742"/>
      <point x="426" y="725"/>
      <point x="509" y="725" type="curve" smooth="yes"/>
      <point x="720" y="727"/>
      <point x="833" y="827"/>
      <point x="833" y="965" type="curve" smooth="yes"/>
      <point x="833" y="1088"/>
      <point x="730" y="1160"/>
      <point x="552" y="1145" type="curve"/>
      <point x="385" y="1111" type="line"/>
      <point x="385" y="1205" type="line"/>
      <point x="654" y="1249"/>
      <point x="723" y="1345"/>
      <point x="748" y="1432" type="curve" smooth="yes"/>
      <point x="755" y="1458"/>
      <point x="754" y="1484"/>
      <point x="748" y="1509" type="curve"/>
      <point x="736" y="1581"/>
      <point x="643" y="1619"/>
      <point x="539" y="1616" type="curve" smooth="yes"/>
      <point x="434" y="1612"/>
      <point x="291" y="1564"/>
      <point x="229" y="1513" type="curve"/>
      <point x="191" y="1583" type="line"/>
      <point x="254" y="1635"/>
      <point x="401" y="1701"/>
      <point x="549" y="1712" type="curve"/>
      <point x="776" y="1731"/>
      <point x="904" y="1619"/>
      <point x="904" y="1479" type="curve" smooth="yes"/>
      <point x="904" y="1368"/>
      <point x="825" y="1265"/>
      <point x="661" y="1214" type="curve"/>
      <point x="914" y="1227"/>
      <point x="980" y="1062"/>
      <point x="980" y="957" type="curve" smooth="yes"/>
      <point x="980" y="764"/>
      <point x="800" y="629"/>
      <point x="516" y="629" type="curve" smooth="yes"/>
      <point x="437" y="629"/>
      <point x="322" y="648"/>
    </contour>
  </outline>
</glyph>
<glyph name="acute" format="1">
  <advance width="884"/>
  <unicode hex="00B4"/>
  <outline>
    <contour>
      <point x="310" y="1343" type="curve"/>
      <point x="267" y="1386" type="line"/>
      <point x="580" y="1770" type="line"/>
      <point x="686" y="1661" type="line"/>
      <point x="624" y="1564"/>
      <point x="431" y="1425"/>
    </contour>
  </outline>
</glyph>
<glyph name="mu" format="1">
  <advance width="1415"/>
  <unicode hex="00B5"/>
  <unicode hex="03bc"/>
  <outline>
    <contour>
      <point x="407" y="21" type="curve"/>
      <point x="407" y="-402" type="line"/>
      <point x="264" y="-402" type="line"/>
      <point x="264" y="443" type="line"/>
      <point x="264" y="461" type="line"/>
      <point x="264" y="1014" type="line"/>
      <point x="161" y="1034" type="line"/>
      <point x="161" y="1094" type="line"/>
      <point x="377" y="1139" type="line"/>
      <point x="407" y="1121" type="line"/>
      <point x="407" y="441" type="line" smooth="yes"/>
      <point x="407" y="201"/>
      <point x="450" y="84"/>
      <point x="646" y="84" type="curve" smooth="yes"/>
      <point x="802" y="84"/>
      <point x="939" y="183"/>
      <point x="979" y="219" type="curve"/>
      <point x="979" y="1007" type="line"/>
      <point x="854" y="1029" type="line"/>
      <point x="854" y="1093" type="line"/>
      <point x="1094" y="1138" type="line"/>
      <point x="1121" y="1121" type="line"/>
      <point x="1121" y="71" type="line"/>
      <point x="1248" y="71" type="line"/>
      <point x="1248" y="10" type="line"/>
      <point x="1209" y="-7"/>
      <point x="1134" y="-24"/>
      <point x="1085" y="-24" type="curve" smooth="yes"/>
      <point x="1025" y="-24"/>
      <point x="992" y="0"/>
      <point x="992" y="52" type="curve" smooth="yes"/>
      <point x="992" y="142" type="line"/>
      <point x="862" y="33"/>
      <point x="726" y="-21"/>
      <point x="589" y="-21" type="curve" smooth="yes"/>
      <point x="511" y="-21"/>
      <point x="452" y="-5"/>
    </contour>
  </outline>
</glyph>
<glyph name="periodcentered" format="1">
  <advance width="647"/>
  <unicode hex="00B7"/>
  <outline>
    <contour>
      <point x="300" y="757" type="curve" smooth="yes"/>
      <point x="256" y="764"/>
      <point x="223" y="802"/>
      <point x="232" y="854" type="curve" smooth="yes"/>
      <point x="241" y="910"/>
      <point x="298" y="945"/>
      <point x="346" y="940" type="curve" smooth="yes"/>
      <point x="405" y="933"/>
      <point x="423" y="888"/>
      <point x="415" y="842" type="curve"/>
      <point x="407" y="783"/>
      <point x="350" y="750"/>
    </contour>
  </outline>
</glyph>
<glyph name="cedilla" format="1">
  <advance width="615"/>
  <unicode hex="00B8"/>
  <outline>
    <contour>
      <point x="227" y="0" type="curve"/>
      <point x="316" y="0" type="line"/>
      <point x="311" y="-33"/>
      <point x="306" y="-86"/>
      <point x="310" y="-127" type="curve"/>
      <point x="497" y="-119"/>
      <point x="584" y="-212"/>
      <point x="584" y="-316" type="curve" smooth="yes"/>
      <point x="584" y="-450"/>
      <point x="468" y="-522"/>
      <point x="331" y="-527" type="curve" smooth="yes"/>
      <point x="227" y="-531"/>
      <point x="185" y="-519"/>
      <point x="134" y="-506" type="curve"/>
      <point x="134" y="-483"/>
      <point x="135" y="-447"/>
      <point x="135" y="-425" type="curve"/>
      <point x="172" y="-436"/>
      <point x="237" y="-445"/>
      <point x="267" y="-445" type="curve" smooth="yes"/>
      <point x="341" y="-445"/>
      <point x="438" y="-431"/>
      <point x="438" y="-315" type="curve" smooth="yes"/>
      <point x="438" y="-228"/>
      <point x="364" y="-193"/>
      <point x="259" y="-193" type="curve" smooth="yes"/>
      <point x="240" y="-193"/>
      <point x="207" y="-196"/>
      <point x="197" y="-198" type="curve"/>
      <point x="197" y="-133"/>
      <point x="207" y="-71"/>
    </contour>
  </outline>
</glyph>
<glyph name="onehalf" format="1">
  <advance width="2626"/>
  <unicode hex="00BD"/>
  <outline>
    <contour>
      <point x="792" y="-322" type="line"/>
      <point x="1521" y="1881" type="line"/>
      <point x="1620" y="1856" type="line"/>
      <point x="895" y="-343" type="line"/>
    </contour>
    <contour>
      <point x="245" y="718" type="line"/>
      <point x="245" y="786" type="line"/>
      <point x="536" y="807" type="line"/>
      <point x="536" y="1546" type="line"/>
      <point x="440" y="1510"/>
      <point x="343" y="1473"/>
      <point x="242" y="1448" type="curve"/>
      <point x="227" y="1528" type="line"/>
      <point x="348" y="1563"/>
      <point x="586" y="1682"/>
      <point x="633" y="1724" type="curve"/>
      <point x="683" y="1709" type="line"/>
      <point x="681" y="808" type="line"/>
      <point x="956" y="786" type="line"/>
      <point x="956" y="718" type="line"/>
    </contour>
    <contour>
      <point x="1448" y="85" type="line"/>
      <point x="1694" y="209"/>
      <point x="2113" y="480"/>
      <point x="2113" y="687" type="curve" smooth="yes"/>
      <point x="2113" y="830"/>
      <point x="2004" y="896"/>
      <point x="1867" y="896" type="curve" smooth="yes"/>
      <point x="1743" y="896"/>
      <point x="1583" y="825"/>
      <point x="1501" y="714" type="curve"/>
      <point x="1443" y="782" type="line"/>
      <point x="1511" y="888"/>
      <point x="1695" y="1008"/>
      <point x="1899" y="1008" type="curve" smooth="yes"/>
      <point x="2177" y="1008"/>
      <point x="2277" y="854"/>
      <point x="2276" y="732" type="curve" smooth="yes"/>
      <point x="2273" y="478"/>
      <point x="1996" y="283"/>
      <point x="1633" y="90" type="curve"/>
      <point x="2214" y="120" type="line"/>
      <point x="2320" y="292" type="line"/>
      <point x="2399" y="260" type="line"/>
      <point x="2339" y="-1" type="line"/>
      <point x="1481" y="-1" type="line"/>
    </contour>
  </outline>
</glyph>
<glyph name="questiondown" format="1">
  <advance width="1009"/>
  <unicode hex="00BF"/>
  <outline>
    <contour>
      <point x="430" y="1243" type="curve" smooth="yes"/>
      <point x="386" y="1250"/>
      <point x="354" y="1288"/>
      <point x="362" y="1340" type="curve" smooth="yes"/>
      <point x="371" y="1396"/>
      <point x="429" y="1432"/>
      <point x="476" y="1426" type="curve" smooth="yes"/>
      <point x="536" y="1419"/>
      <point x="554" y="1374"/>
      <point x="545" y="1328" type="curve"/>
      <point x="538" y="1269"/>
      <point x="481" y="1236"/>
    </contour>
    <contour>
      <point x="87" y="214" type="curve"/>
      <point x="87" y="387"/>
      <point x="533" y="455"/>
      <point x="569" y="579" type="curve"/>
      <point x="582" y="695"/>
      <point x="514" y="815"/>
      <point x="465" y="926" type="curve"/>
      <point x="550" y="926" type="line"/>
      <point x="606" y="876"/>
      <point x="714" y="692"/>
      <point x="712" y="584" type="curve" smooth="yes"/>
      <point x="710" y="422"/>
      <point x="218" y="354"/>
      <point x="198" y="223" type="curve"/>
      <point x="188" y="-57"/>
      <point x="423" y="-286"/>
      <point x="709" y="-286" type="curve" smooth="yes"/>
      <point x="763" y="-286"/>
      <point x="840" y="-277"/>
      <point x="879" y="-257" type="curve"/>
      <point x="879" y="-373" type="line"/>
      <point x="861" y="-396"/>
      <point x="768" y="-418"/>
      <point x="692" y="-418" type="curve" smooth="yes"/>
      <point x="232" y="-418"/>
      <point x="63" y="-63"/>
    </contour>
  </outline>
</glyph>
<glyph name="Atilde" format="1">
  <advance width="1493"/>
  <unicode hex="00C3"/>
  <outline>
    <contour>
      <point x="392" y="1701" type="curve"/>
      <point x="350" y="1760" type="line"/>
      <point x="402" y="1848"/>
      <point x="507" y="1920"/>
      <point x="615" y="1920" type="curve" smooth="yes"/>
      <point x="744" y="1920"/>
      <point x="791" y="1775"/>
      <point x="893" y="1775" type="curve" smooth="yes"/>
      <point x="976" y="1775"/>
      <point x="1039" y="1822"/>
      <point x="1084" y="1873" type="curve"/>
      <point x="1126" y="1813" type="line"/>
      <point x="1075" y="1727"/>
      <point x="971" y="1653"/>
      <point x="863" y="1653" type="curve" smooth="yes"/>
      <point x="734" y="1653"/>
      <point x="687" y="1800"/>
      <point x="584" y="1800" type="curve" smooth="yes"/>
      <point x="504" y="1800"/>
      <point x="437" y="1752"/>
    </contour>
    <contour>
      <point x="2" y="0" type="line"/>
      <point x="2" y="67" type="line"/>
      <point x="148" y="91" type="line"/>
      <point x="686" y="1561" type="line"/>
      <point x="807" y="1561" type="line"/>
      <point x="1330" y="91" type="line"/>
      <point x="1495" y="67" type="line"/>
      <point x="1495" y="0" type="line"/>
      <point x="1007" y="0" type="line"/>
      <point x="1007" y="67" type="line"/>
      <point x="1175" y="91" type="line"/>
      <point x="1048" y="455" type="line"/>
      <point x="404" y="455" type="line"/>
      <point x="278" y="91" type="line"/>
      <point x="452" y="67" type="line"/>
      <point x="452" y="0" type="line"/>
    </contour>
    <contour>
      <point x="435" y="546" type="line"/>
      <point x="1017" y="546" type="line"/>
      <point x="803" y="1159" type="line"/>
      <point x="729" y="1392" type="line"/>
    </contour>
  </outline>
</glyph>
<glyph name="Aring" format="1">
  <advance width="1493"/>
  <unicode hex="00C5"/>
  <outline>
    <contour>
      <point x="2" y="0" type="line"/>
      <point x="2" y="67" type="line"/>
      <point x="148" y="91" type="line"/>
      <point x="660" y="1491" type="line"/>
      <point x="563" y="1520"/>
      <point x="492" y="1599"/>
      <point x="492" y="1700" type="curve" smooth="yes"/>
      <point x="492" y="1827"/>
      <point x="606" y="1920"/>
      <point x="744" y="1920" type="curve" smooth="yes"/>
      <point x="882" y="1920"/>
      <point x="996" y="1828"/>
      <point x="996" y="1700" type="curve" smooth="yes"/>
      <point x="996" y="1601"/>
      <point x="927" y="1522"/>
      <point x="831" y="1492" type="curve"/>
      <point x="1330" y="91" type="line"/>
      <point x="1495" y="67" type="line"/>
      <point x="1495" y="0" type="line"/>
      <point x="1007" y="0" type="line"/>
      <point x="1007" y="67" type="line"/>
      <point x="1175" y="91" type="line"/>
      <point x="1048" y="455" type="line"/>
      <point x="404" y="455" type="line"/>
      <point x="278" y="91" type="line"/>
      <point x="452" y="67" type="line"/>
      <point x="452" y="0" type="line"/>
    </contour>
    <contour>
      <point x="744" y="1562" type="curve" smooth="yes"/>
      <point x="830" y="1562"/>
      <point x="902" y="1617"/>
      <point x="902" y="1698" type="curve" smooth="yes"/>
      <point x="902" y="1778"/>
      <point x="830" y="1834"/>
      <point x="744" y="1834" type="curve" smooth="yes"/>
      <point x="657" y="1834"/>
      <point x="586" y="1778"/>
      <point x="586" y="1699" type="curve" smooth="yes"/>
      <point x="586" y="1617"/>
      <point x="657" y="1562"/>
    </contour>
    <contour>
      <point x="435" y="546" type="line"/>
      <point x="1017" y="546" type="line"/>
      <point x="803" y="1159" type="line"/>
      <point x="729" y="1392" type="line"/>
    </contour>
  </outline>
</glyph>
<glyph name="AE" format="1">
  <advance width="1940"/>
  <unicode hex="00C6"/>
  <outline>
    <contour>
      <point x="2" y="0" type="line"/>
      <point x="2" y="67" type="line"/>
      <point x="140" y="91" type="line"/>
      <point x="729" y="1553" type="line"/>
      <point x="1674" y="1553" type="line"/>
      <point x="1703" y="1268" type="line"/>
      <point x="1624" y="1266" type="line"/>
      <point x="1578" y="1460" type="line"/>
      <point x="905" y="1471" type="line"/>
      <point x="1090" y="860" type="line"/>
      <point x="1527" y="867" type="line"/>
      <point x="1553" y="1031" type="line"/>
      <point x="1626" y="1031" type="line"/>
      <point x="1626" y="611" type="line"/>
      <point x="1553" y="611" type="line"/>
      <point x="1527" y="772" type="line"/>
      <point x="1115" y="777" type="line"/>
      <point x="1325" y="85" type="line"/>
      <point x="1694" y="98" type="line"/>
      <point x="1784" y="324" type="line"/>
      <point x="1852" y="291" type="line"/>
      <point x="1807" y="0" type="line"/>
      <point x="983" y="0" type="line"/>
      <point x="983" y="67" type="line"/>
      <point x="1162" y="91" type="line"/>
      <point x="1042" y="479" type="line"/>
      <point x="417" y="479" type="line"/>
      <point x="269" y="91" type="line"/>
      <point x="452" y="67" type="line"/>
      <point x="452" y="0" type="line"/>
    </contour>
    <contour>
      <point x="451" y="570" type="line"/>
      <point x="1013" y="570" type="line"/>
      <point x="809" y="1229" type="line"/>
      <point x="770" y="1405" type="line"/>
    </contour>
  </outline>
</glyph>
<glyph name="Ccedilla" format="1">
  <advance width="1410"/>
  <unicode hex="00C7"/>
  <outline>
    <contour>
      <point x="87" y="731" type="curve" smooth="yes"/>
      <point x="86" y="1240"/>
      <point x="466" y="1567"/>
      <point x="893" y="1567" type="curve" smooth="yes"/>
      <point x="1086" y="1567"/>
      <point x="1222" y="1515"/>
      <point x="1309" y="1496" type="curve"/>
      <point x="1294" y="1220" type="line"/>
      <point x="1213" y="1220" type="line"/>
      <point x="1175" y="1400" type="line"/>
      <point x="1093" y="1452"/>
      <point x="988" y="1478"/>
      <point x="849" y="1478" type="curve" smooth="yes"/>
      <point x="536" y="1478"/>
      <point x="240" y="1227"/>
      <point x="240" y="778" type="curve" smooth="yes"/>
      <point x="240" y="389"/>
      <point x="453" y="51"/>
      <point x="848" y="55" type="curve" smooth="yes"/>
      <point x="1010" y="56"/>
      <point x="1139" y="104"/>
      <point x="1198" y="166" type="curve"/>
      <point x="1242" y="335" type="line"/>
      <point x="1262" y="335"/>
      <point x="1290" y="334"/>
      <point x="1310" y="334" type="curve"/>
      <point x="1310" y="63" type="line"/>
      <point x="1219" y="59"/>
      <point x="1100" y="-20"/>
      <point x="842" y="-27" type="curve"/>
      <point x="838" y="-58"/>
      <point x="837" y="-96"/>
      <point x="840" y="-127" type="curve"/>
      <point x="1027" y="-119"/>
      <point x="1114" y="-212"/>
      <point x="1114" y="-316" type="curve" smooth="yes"/>
      <point x="1114" y="-450"/>
      <point x="998" y="-522"/>
      <point x="861" y="-527" type="curve" smooth="yes"/>
      <point x="757" y="-531"/>
      <point x="715" y="-519"/>
      <point x="664" y="-506" type="curve"/>
      <point x="664" y="-483"/>
      <point x="665" y="-447"/>
      <point x="665" y="-425" type="curve"/>
      <point x="702" y="-436"/>
      <point x="767" y="-445"/>
      <point x="797" y="-445" type="curve" smooth="yes"/>
      <point x="871" y="-445"/>
      <point x="968" y="-431"/>
      <point x="968" y="-315" type="curve" smooth="yes"/>
      <point x="968" y="-228"/>
      <point x="894" y="-193"/>
      <point x="789" y="-193" type="curve" smooth="yes"/>
      <point x="770" y="-193"/>
      <point x="737" y="-196"/>
      <point x="727" y="-198" type="curve"/>
      <point x="727" y="-141"/>
      <point x="734" y="-86"/>
      <point x="750" y="-26" type="curve"/>
      <point x="364" y="0"/>
      <point x="87" y="306"/>
    </contour>
  </outline>
</glyph>
<glyph name="Egrave" format="1">
  <advance width="1319"/>
  <unicode hex="00C8"/>
  <outline>
    <contour>
      <point x="724" y="1608" type="line"/>
      <point x="603" y="1657"/>
      <point x="458" y="1736"/>
      <point x="364" y="1811" type="curve"/>
      <point x="470" y="1920" type="line"/>
      <point x="766" y="1651" type="line"/>
    </contour>
    <contour>
      <point x="102" y="0" type="line"/>
      <point x="102" y="67" type="line"/>
      <point x="282" y="91" type="line"/>
      <point x="282" y="1461" type="line"/>
      <point x="106" y="1477" type="line"/>
      <point x="106" y="1553" type="line"/>
      <point x="1143" y="1553" type="line"/>
      <point x="1172" y="1267" type="line"/>
      <point x="1087" y="1267" type="line"/>
      <point x="1041" y="1461" type="line"/>
      <point x="429" y="1472" type="line"/>
      <point x="429" y="865" type="line"/>
      <point x="837" y="872" type="line"/>
      <point x="863" y="1033" type="line"/>
      <point x="942" y="1033" type="line"/>
      <point x="942" y="609" type="line"/>
      <point x="863" y="609" type="line"/>
      <point x="837" y="776" type="line"/>
      <point x="429" y="782" type="line"/>
      <point x="429" y="84" type="line"/>
      <point x="1087" y="100" type="line"/>
      <point x="1178" y="333" type="line"/>
      <point x="1252" y="315" type="line"/>
      <point x="1207" y="0" type="line"/>
    </contour>
  </outline>
</glyph>
<glyph name="Icircumflex" format="1">
  <advance width="763"/>
  <unicode hex="00CE"/>
  <outline>
    <contour>
      <point x="103" y="1617" type="line"/>
      <point x="40" y="1654" type="line"/>
      <point x="309" y="1920" type="line"/>
      <point x="455" y="1920" type="line"/>
      <point x="725" y="1656" type="line"/>
      <point x="655" y="1617" type="line"/>
      <point x="382" y="1817" type="line"/>
    </contour>
    <contour>
      <point x="136" y="0" type="line"/>
      <point x="136" y="67" type="line"/>
      <point x="305" y="91" type="line"/>
      <point x="305" y="1462" type="line"/>
      <point x="139" y="1477" type="line"/>
      <point x="139" y="1553" type="line"/>
      <point x="621" y="1553" type="line"/>
      <point x="621" y="1477" type="line"/>
      <point x="453" y="1462" type="line"/>
      <point x="453" y="91" type="line"/>
      <point x="629" y="67" type="line"/>
      <point x="629" y="0" type="line"/>
    </contour>
  </outline>
</glyph>
<glyph name="Idieresis" format="1">
  <advance width="763"/>
  <unicode hex="00CF"/>
  <outline>
    <contour>
      <point x="599" y="1689" type="curve" smooth="yes"/>
      <point x="548" y="1689"/>
      <point x="500" y="1726"/>
      <point x="500" y="1784" type="curve" smooth="yes"/>
      <point x="500" y="1847"/>
      <point x="561" y="1897"/>
      <point x="618" y="1897" type="curve" smooth="yes"/>
      <point x="686" y="1897"/>
      <point x="717" y="1853"/>
      <point x="717" y="1801" type="curve" smooth="yes"/>
      <point x="717" y="1735"/>
      <point x="658" y="1689"/>
    </contour>
    <contour>
      <point x="142" y="1690" type="curve" smooth="yes"/>
      <point x="91" y="1690"/>
      <point x="43" y="1726"/>
      <point x="43" y="1785" type="curve" smooth="yes"/>
      <point x="43" y="1848"/>
      <point x="104" y="1897"/>
      <point x="160" y="1897" type="curve" smooth="yes"/>
      <point x="229" y="1897"/>
      <point x="260" y="1853"/>
      <point x="260" y="1802" type="curve" smooth="yes"/>
      <point x="260" y="1735"/>
      <point x="201" y="1690"/>
    </contour>
    <contour>
      <point x="136" y="0" type="line"/>
      <point x="136" y="67" type="line"/>
      <point x="305" y="91" type="line"/>
      <point x="305" y="1462" type="line"/>
      <point x="139" y="1477" type="line"/>
      <point x="139" y="1553" type="line"/>
      <point x="621" y="1553" type="line"/>
      <point x="621" y="1477" type="line"/>
      <point x="453" y="1462" type="line"/>
      <point x="453" y="91" type="line"/>
      <point x="629" y="67" type="line"/>
      <point x="629" y="0" type="line"/>
    </contour>
  </outline>
</glyph>
<glyph name="Eth" format="1">
  <advance width="1593"/>
  <unicode hex="00D0"/>
  <outline>
    <contour>
      <point x="106" y="0" type="curve"/>
      <point x="106" y="67" type="line"/>
      <point x="286" y="92" type="line"/>
      <point x="286" y="759" type="line"/>
      <point x="97" y="759" type="line"/>
      <point x="97" y="870" type="line"/>
      <point x="286" y="870" type="line"/>
      <point x="286" y="1461" type="line"/>
      <point x="110" y="1477" type="line"/>
      <point x="110" y="1553" type="line"/>
      <point x="359" y="1553" type="line" smooth="yes"/>
      <point x="514" y="1553"/>
      <point x="619" y="1566"/>
      <point x="743" y="1566" type="curve" smooth="yes"/>
      <point x="1249" y="1568"/>
      <point x="1500" y="1289"/>
      <point x="1500" y="817" type="curve" smooth="yes"/>
      <point x="1500" y="293"/>
      <point x="1165" y="-17"/>
      <point x="692" y="-10" type="curve" smooth="yes"/>
      <point x="595" y="-9"/>
      <point x="469" y="1"/>
      <point x="361" y="1" type="curve" smooth="yes"/>
      <point x="300" y="1"/>
      <point x="167" y="0"/>
    </contour>
    <contour>
      <point x="434" y="100" type="line"/>
      <point x="526" y="84"/>
      <point x="610" y="74"/>
      <point x="713" y="76" type="curve" smooth="yes"/>
      <point x="1054" y="81"/>
      <point x="1345" y="294"/>
      <point x="1345" y="776" type="curve" smooth="yes"/>
      <point x="1345" y="1251"/>
      <point x="1108" y="1489"/>
      <point x="698" y="1479" type="curve" smooth="yes"/>
      <point x="591" y="1476"/>
      <point x="499" y="1470"/>
      <point x="434" y="1461" type="curve"/>
      <point x="434" y="870" type="line"/>
      <point x="707" y="870" type="line"/>
      <point x="707" y="759" type="line"/>
      <point x="434" y="759" type="line"/>
    </contour>
  </outline>
</glyph>
<glyph name="Ntilde" format="1">
  <advance width="1662"/>
  <unicode hex="00D1"/>
  <outline>
    <contour>
      <point x="486" y="1701" type="curve"/>
      <point x="443" y="1760" type="line"/>
      <point x="496" y="1848"/>
      <point x="601" y="1920"/>
      <point x="708" y="1920" type="curve" smooth="yes"/>
      <point x="837" y="1920"/>
      <point x="884" y="1775"/>
      <point x="986" y="1775" type="curve" smooth="yes"/>
      <point x="1070" y="1775"/>
      <point x="1133" y="1822"/>
      <point x="1178" y="1873" type="curve"/>
      <point x="1219" y="1813" type="line"/>
      <point x="1169" y="1727"/>
      <point x="1064" y="1653"/>
      <point x="956" y="1653" type="curve" smooth="yes"/>
      <point x="827" y="1653"/>
      <point x="780" y="1800"/>
      <point x="678" y="1800" type="curve" smooth="yes"/>
      <point x="598" y="1800"/>
      <point x="530" y="1752"/>
    </contour>
    <contour>
      <point x="104" y="0" type="line"/>
      <point x="104" y="67" type="line"/>
      <point x="280" y="90" type="line"/>
      <point x="280" y="1454" type="line"/>
      <point x="110" y="1469" type="line"/>
      <point x="110" y="1553" type="line"/>
      <point x="436" y="1553" type="line"/>
      <point x="1155" y="399" type="line"/>
      <point x="1303" y="128" type="line"/>
      <point x="1303" y="1455" type="line"/>
      <point x="1129" y="1470" type="line"/>
      <point x="1129" y="1553" type="line"/>
      <point x="1585" y="1553" type="line"/>
      <point x="1585" y="1470" type="line"/>
      <point x="1412" y="1455" type="line"/>
      <point x="1412" y="0" type="line"/>
      <point x="1250" y="0" type="line"/>
      <point x="539" y="1112" type="line"/>
      <point x="391" y="1392" type="line"/>
      <point x="391" y="1084"/>
      <point x="390" y="391"/>
      <point x="390" y="91" type="curve"/>
      <point x="596" y="67" type="line"/>
      <point x="596" y="0" type="line"/>
    </contour>
  </outline>
</glyph>
<glyph name="multiply" format="1">
  <advance width="1241"/>
  <unicode hex="00D7"/>
  <outline>
    <contour>
      <point x="280" y="361" type="line"/>
      <point x="190" y="456" type="line"/>
      <point x="544" y="796" type="line"/>
      <point x="190" y="1137" type="line"/>
      <point x="280" y="1232" type="line"/>
      <point x="619" y="872" type="line"/>
      <point x="960" y="1232" type="line"/>
      <point x="1050" y="1137" type="line"/>
      <point x="696" y="796" type="line"/>
      <point x="1050" y="456" type="line"/>
      <point x="960" y="361" type="line"/>
      <point x="619" y="720" type="line"/>
    </contour>
  </outline>
</glyph>
<glyph name="Oslash" format="1">
  <advance width="1554"/>
  <unicode hex="00D8"/>
  <outline>
    <contour>
      <point x="442" y="-166" type="line"/>
      <point x="505" y="19" type="line"/>
      <point x="244" y="125"/>
      <point x="83" y="400"/>
      <point x="90" y="755" type="curve" smooth="yes"/>
      <point x="100" y="1277"/>
      <point x="422" y="1559"/>
      <point x="801" y="1566" type="curve" smooth="yes"/>
      <point x="884" y="1567"/>
      <point x="961" y="1555"/>
      <point x="1031" y="1531" type="curve"/>
      <point x="1086" y="1690" type="line"/>
      <point x="1154" y="1663" type="line"/>
      <point x="1099" y="1502" type="line"/>
      <point x="1332" y="1387"/>
      <point x="1470" y="1124"/>
      <point x="1464" y="791" type="curve" smooth="yes"/>
      <point x="1454" y="271"/>
      <point x="1147" y="-20"/>
      <point x="774" y="-28" type="curve" smooth="yes"/>
      <point x="704" y="-29"/>
      <point x="638" y="-21"/>
      <point x="577" y="-5" type="curve"/>
      <point x="514" y="-192" type="line"/>
    </contour>
    <contour>
      <point x="544" y="120" type="curve"/>
      <point x="995" y="1434" type="line"/>
      <point x="934" y="1465"/>
      <point x="864" y="1483"/>
      <point x="786" y="1483" type="curve" smooth="yes"/>
      <point x="476" y="1483"/>
      <point x="252" y="1219"/>
      <point x="252" y="756" type="curve" smooth="yes"/>
      <point x="252" y="470"/>
      <point x="359" y="231"/>
    </contour>
    <contour>
      <point x="613" y="87" type="line"/>
      <point x="666" y="66"/>
      <point x="725" y="55"/>
      <point x="788" y="55" type="curve" smooth="yes"/>
      <point x="1095" y="55"/>
      <point x="1303" y="337"/>
      <point x="1303" y="790" type="curve" smooth="yes"/>
      <point x="1303" y="1050"/>
      <point x="1218" y="1276"/>
      <point x="1059" y="1394" type="curve"/>
    </contour>
  </outline>
</glyph>
<glyph name="Yacute" format="1">
  <advance width="1352"/>
  <unicode hex="00DD"/>
  <outline>
    <contour>
      <point x="698" y="1608" type="curve"/>
      <point x="656" y="1651" type="line"/>
      <point x="952" y="1920" type="line"/>
      <point x="1059" y="1811" type="line"/>
      <point x="964" y="1736"/>
      <point x="819" y="1657"/>
    </contour>
    <contour>
      <point x="422" y="0" type="line"/>
      <point x="422" y="67" type="line"/>
      <point x="625" y="92" type="line"/>
      <point x="625" y="640" type="line"/>
      <point x="134" y="1462" type="line"/>
      <point x="12" y="1477" type="line"/>
      <point x="12" y="1553" type="line"/>
      <point x="472" y="1553" type="line"/>
      <point x="472" y="1476" type="line"/>
      <point x="304" y="1462" type="line"/>
      <point x="655" y="829" type="line"/>
      <point x="708" y="722" type="line"/>
      <point x="757" y="830" type="line"/>
      <point x="1077" y="1461" type="line"/>
      <point x="906" y="1477" type="line"/>
      <point x="906" y="1553" type="line"/>
      <point x="1337" y="1553" type="line"/>
      <point x="1337" y="1477" type="line"/>
      <point x="1202" y="1455" type="line"/>
      <point x="772" y="637" type="line"/>
      <point x="772" y="92" type="line"/>
      <point x="983" y="67" type="line"/>
      <point x="983" y="0" type="line"/>
    </contour>
  </outline>
</glyph>
<glyph name="Thorn" format="1">
  <advance width="1296"/>
  <unicode hex="00DE"/>
  <outline>
    <contour>
      <point x="86" y="0" type="line"/>
      <point x="86" y="67" type="line"/>
      <point x="287" y="92" type="line"/>
      <point x="287" y="1463" type="line"/>
      <point x="122" y="1477" type="line"/>
      <point x="122" y="1553" type="line"/>
      <point x="604" y="1553" type="line"/>
      <point x="604" y="1477" type="line"/>
      <point x="435" y="1462" type="line"/>
      <point x="435" y="1227" type="line"/>
      <point x="510" y="1235"/>
      <point x="612" y="1253"/>
      <point x="706" y="1253" type="curve" smooth="yes"/>
      <point x="1013" y="1253"/>
      <point x="1236" y="1127"/>
      <point x="1236" y="815" type="curve" smooth="yes"/>
      <point x="1236" y="489"/>
      <point x="951" y="323"/>
      <point x="657" y="325" type="curve" smooth="yes"/>
      <point x="547" y="325"/>
      <point x="478" y="331"/>
      <point x="435" y="332" type="curve"/>
      <point x="435" y="92" type="line"/>
      <point x="711" y="67" type="line"/>
      <point x="711" y="0" type="line"/>
    </contour>
    <contour>
      <point x="435" y="418" type="line"/>
      <point x="509" y="406"/>
      <point x="592" y="404"/>
      <point x="654" y="404" type="curve" smooth="yes"/>
      <point x="891" y="407"/>
      <point x="1087" y="514"/>
      <point x="1087" y="813" type="curve" smooth="yes"/>
      <point x="1087" y="1047"/>
      <point x="937" y="1177"/>
      <point x="645" y="1167" type="curve" smooth="yes"/>
      <point x="580" y="1164"/>
      <point x="495" y="1151"/>
      <point x="435" y="1136" type="curve"/>
    </contour>
  </outline>
</glyph>
<glyph name="germandbls" format="1">
  <advance width="1334"/>
  <unicode hex="00DF"/>
  <outline>
    <contour>
      <point x="67" y="0" type="line"/>
      <point x="67" y="67" type="line"/>
      <point x="224" y="93" type="line"/>
      <point x="224" y="872" type="line" smooth="yes"/>
      <point x="224" y="1361"/>
      <point x="486" y="1576"/>
      <point x="766" y="1576" type="curve" smooth="yes"/>
      <point x="910" y="1576"/>
      <point x="1078" y="1514"/>
      <point x="1078" y="1288" type="curve" smooth="yes"/>
      <point x="1078" y="1048"/>
      <point x="877" y="990"/>
      <point x="877" y="806" type="curve" smooth="yes"/>
      <point x="877" y="599"/>
      <point x="1308" y="629"/>
      <point x="1308" y="310" type="curve" smooth="yes"/>
      <point x="1308" y="76"/>
      <point x="1115" y="-21"/>
      <point x="894" y="-21" type="curve" smooth="yes"/>
      <point x="836" y="-21"/>
      <point x="752" y="-21"/>
      <point x="673" y="-2" type="curve"/>
      <point x="673" y="132" type="line"/>
      <point x="724" y="106"/>
      <point x="829" y="67"/>
      <point x="907" y="67" type="curve" smooth="yes"/>
      <point x="1048" y="67"/>
      <point x="1172" y="120"/>
      <point x="1172" y="281" type="curve" smooth="yes"/>
      <point x="1172" y="522"/>
      <point x="739" y="510"/>
      <point x="739" y="751" type="curve" smooth="yes"/>
      <point x="739" y="902"/>
      <point x="947" y="1046"/>
      <point x="947" y="1237" type="curve" smooth="yes"/>
      <point x="947" y="1378"/>
      <point x="874" y="1484"/>
      <point x="727" y="1484" type="curve" smooth="yes"/>
      <point x="508" y="1484"/>
      <point x="369" y="1340"/>
      <point x="369" y="872" type="curve" smooth="yes"/>
      <point x="369" y="0" type="line"/>
    </contour>
  </outline>
</glyph>
<glyph name="ae" format="1">
  <advance width="1810"/>
  <unicode hex="00E6"/>
  <outline>
    <contour>
      <point x="111" y="314" type="curve"/>
      <point x="132" y="597"/>
      <point x="587" y="671"/>
      <point x="795" y="662" type="curve"/>
      <point x="795" y="753" type="line" smooth="yes"/>
      <point x="795" y="983"/>
      <point x="678" y="1037"/>
      <point x="511" y="1037" type="curve" smooth="yes"/>
      <point x="415" y="1037"/>
      <point x="272" y="996"/>
      <point x="181" y="942" type="curve"/>
      <point x="156" y="1018" type="line"/>
      <point x="247" y="1089"/>
      <point x="442" y="1139"/>
      <point x="563" y="1139" type="curve" smooth="yes"/>
      <point x="720" y="1139"/>
      <point x="862" y="1099"/>
      <point x="908" y="915" type="curve"/>
      <point x="995" y="1062"/>
      <point x="1140" y="1150"/>
      <point x="1330" y="1152" type="curve"/>
      <point x="1552" y="1156"/>
      <point x="1696" y="1004"/>
      <point x="1703" y="736" type="curve" smooth="yes"/>
      <point x="1705" y="669"/>
      <point x="1698" y="617"/>
      <point x="1693" y="574" type="curve"/>
      <point x="940" y="574" type="line"/>
      <point x="931" y="233"/>
      <point x="1116" y="78"/>
      <point x="1352" y="78" type="curve" smooth="yes"/>
      <point x="1465" y="78"/>
      <point x="1599" y="119"/>
      <point x="1652" y="157" type="curve"/>
      <point x="1683" y="88" type="line"/>
      <point x="1611" y="18"/>
      <point x="1439" y="-25"/>
      <point x="1299" y="-25" type="curve" smooth="yes"/>
      <point x="1090" y="-25"/>
      <point x="953" y="65"/>
      <point x="878" y="216" type="curve"/>
      <point x="819" y="71"/>
      <point x="638" y="-22"/>
      <point x="438" y="-22" type="curve" smooth="yes"/>
      <point x="267" y="-22"/>
      <point x="98" y="98"/>
    </contour>
    <contour>
      <point x="942" y="664" type="curve"/>
      <point x="1549" y="664" type="line"/>
      <point x="1560" y="837"/>
      <point x="1526" y="983"/>
      <point x="1414" y="1041" type="curve" smooth="yes"/>
      <point x="1381" y="1059"/>
      <point x="1341" y="1069"/>
      <point x="1292" y="1069" type="curve" smooth="yes"/>
      <point x="1104" y="1069"/>
      <point x="964" y="928"/>
    </contour>
    <contour>
      <point x="257" y="311" type="curve" smooth="yes"/>
      <point x="257" y="153"/>
      <point x="358" y="75"/>
      <point x="511" y="75" type="curve" smooth="yes"/>
      <point x="648" y="75"/>
      <point x="766" y="158"/>
      <point x="794" y="272" type="curve"/>
      <point x="794" y="355"/>
      <point x="795" y="500"/>
      <point x="795" y="584" type="curve"/>
      <point x="620" y="588"/>
      <point x="257" y="535"/>
    </contour>
  </outline>
</glyph>
<glyph name="ccedilla" format="1">
  <advance width="1051"/>
  <unicode hex="00E7"/>
  <outline>
    <contour>
      <point x="530" y="-18" type="curve"/>
      <point x="258" y="7"/>
      <point x="108" y="236"/>
      <point x="106" y="538" type="curve" smooth="yes"/>
      <point x="104" y="905"/>
      <point x="342" y="1137"/>
      <point x="648" y="1149" type="curve" smooth="yes"/>
      <point x="758" y="1153"/>
      <point x="885" y="1134"/>
      <point x="937" y="1099" type="curve"/>
      <point x="937" y="885" type="line"/>
      <point x="863" y="885" type="line"/>
      <point x="822" y="1013" type="line"/>
      <point x="776" y="1049"/>
      <point x="704" y="1059"/>
      <point x="636" y="1059" type="curve" smooth="yes"/>
      <point x="429" y="1059"/>
      <point x="248" y="901"/>
      <point x="246" y="607" type="curve" smooth="yes"/>
      <point x="243" y="227"/>
      <point x="445" y="84"/>
      <point x="639" y="84" type="curve" smooth="yes"/>
      <point x="729" y="84"/>
      <point x="877" y="112"/>
      <point x="940" y="160" type="curve"/>
      <point x="967" y="88" type="line"/>
      <point x="896" y="25"/>
      <point x="760" y="-13"/>
      <point x="622" y="-20" type="curve"/>
      <point x="618" y="-52"/>
      <point x="615" y="-93"/>
      <point x="619" y="-127" type="curve"/>
      <point x="806" y="-119"/>
      <point x="893" y="-212"/>
      <point x="893" y="-316" type="curve" smooth="yes"/>
      <point x="893" y="-450"/>
      <point x="777" y="-522"/>
      <point x="640" y="-527" type="curve" smooth="yes"/>
      <point x="536" y="-531"/>
      <point x="493" y="-519"/>
      <point x="443" y="-506" type="curve"/>
      <point x="443" y="-425" type="line"/>
      <point x="481" y="-436"/>
      <point x="545" y="-445"/>
      <point x="575" y="-445" type="curve" smooth="yes"/>
      <point x="650" y="-445"/>
      <point x="747" y="-431"/>
      <point x="747" y="-315" type="curve" smooth="yes"/>
      <point x="747" y="-228"/>
      <point x="673" y="-193"/>
      <point x="568" y="-193" type="curve" smooth="yes"/>
      <point x="548" y="-193"/>
      <point x="515" y="-196"/>
      <point x="505" y="-198" type="curve"/>
      <point x="506" y="-138"/>
      <point x="513" y="-82"/>
    </contour>
  </outline>
</glyph>
<glyph name="idieresis" format="1">
  <advance width="683"/>
  <unicode hex="00EF"/>
  <outline>
    <contour>
      <point x="577" y="1425" type="curve" smooth="yes"/>
      <point x="526" y="1425"/>
      <point x="479" y="1459"/>
      <point x="479" y="1518" type="curve" smooth="yes"/>
      <point x="479" y="1580"/>
      <point x="539" y="1629"/>
      <point x="595" y="1629" type="curve" smooth="yes"/>
      <point x="663" y="1629"/>
      <point x="694" y="1586"/>
      <point x="694" y="1534" type="curve" smooth="yes"/>
      <point x="694" y="1468"/>
      <point x="636" y="1425"/>
    </contour>
    <contour>
      <point x="122" y="1425" type="curve" smooth="yes"/>
      <point x="71" y="1425"/>
      <point x="24" y="1459"/>
      <point x="24" y="1518" type="curve" smooth="yes"/>
      <point x="24" y="1580"/>
      <point x="84" y="1629"/>
      <point x="140" y="1629" type="curve" smooth="yes"/>
      <point x="209" y="1629"/>
      <point x="239" y="1586"/>
      <point x="239" y="1534" type="curve" smooth="yes"/>
      <point x="239" y="1468"/>
      <point x="181" y="1425"/>
    </contour>
    <contour>
      <point x="140" y="0" type="line"/>
      <point x="140" y="68" type="line"/>
      <point x="305" y="84" type="line"/>
      <point x="305" y="971" type="line"/>
      <point x="161" y="1021" type="line"/>
      <point x="161" y="1072" type="line"/>
      <point x="406" y="1133" type="line"/>
      <point x="444" y="1114" type="line"/>
      <point x="444" y="85" type="line"/>
      <point x="611" y="68" type="line"/>
      <point x="611" y="0" type="line"/>
    </contour>
  </outline>
</glyph>
<glyph name="ntilde" format="1">
  <advance width="1396"/>
  <unicode hex="00F1"/>
  <outline>
    <contour>
      <point x="382" y="1439" type="curve"/>
      <point x="339" y="1498" type="line"/>
      <point x="392" y="1586"/>
      <point x="497" y="1662"/>
      <point x="604" y="1662" type="curve" smooth="yes"/>
      <point x="733" y="1662"/>
      <point x="780" y="1511"/>
      <point x="882" y="1511" type="curve" smooth="yes"/>
      <point x="965" y="1511"/>
      <point x="1028" y="1567"/>
      <point x="1074" y="1618" type="curve"/>
      <point x="1115" y="1559" type="line"/>
      <point x="1065" y="1472"/>
      <point x="960" y="1394"/>
      <point x="852" y="1394" type="curve" smooth="yes"/>
      <point x="723" y="1394"/>
      <point x="676" y="1546"/>
      <point x="573" y="1546" type="curve" smooth="yes"/>
      <point x="488" y="1546"/>
      <point x="426" y="1490"/>
    </contour>
    <contour>
      <point x="137" y="0" type="line"/>
      <point x="137" y="68" type="line"/>
      <point x="280" y="86" type="line"/>
      <point x="280" y="968" type="line"/>
      <point x="133" y="1021" type="line"/>
      <point x="133" y="1072" type="line"/>
      <point x="370" y="1133" type="line"/>
      <point x="407" y="1114" type="line"/>
      <point x="407" y="976" type="line"/>
      <point x="497" y="1049"/>
      <point x="692" y="1137"/>
      <point x="829" y="1142" type="curve"/>
      <point x="1080" y="1149"/>
      <point x="1171" y="1022"/>
      <point x="1171" y="663" type="curve" smooth="yes"/>
      <point x="1171" y="85" type="line"/>
      <point x="1334" y="68" type="line"/>
      <point x="1334" y="0" type="line"/>
      <point x="873" y="0" type="line"/>
      <point x="873" y="68" type="line"/>
      <point x="1027" y="85" type="line"/>
      <point x="1027" y="645" type="line" smooth="yes"/>
      <point x="1027" y="929"/>
      <point x="966" y="1038"/>
      <point x="765" y="1031" type="curve" smooth="yes"/>
      <point x="663" y="1027"/>
      <point x="526" y="976"/>
      <point x="425" y="907" type="curve"/>
      <point x="425" y="85" type="line"/>
      <point x="583" y="68" type="line"/>
      <point x="583" y="0" type="line"/>
    </contour>
  </outline>
</glyph>
<glyph name="ocircumflex" format="1">
  <advance width="1231"/>
  <unicode hex="00F4"/>
  <outline>
    <contour>
      <point x="337" y="1337" type="line"/>
      <point x="276" y="1373" type="line"/>
      <point x="557" y="1772" type="line"/>
      <point x="699" y="1772" type="line"/>
      <point x="972" y="1374" type="line"/>
      <point x="905" y="1337" type="line"/>
      <point x="628" y="1643" type="line"/>
    </contour>
    <contour>
      <point x="104" y="581" type="curve" smooth="yes"/>
      <point x="109" y="934"/>
      <point x="353" y="1149"/>
      <point x="634" y="1152" type="curve" smooth="yes"/>
      <point x="984" y="1156"/>
      <point x="1129" y="877"/>
      <point x="1127" y="577" type="curve" smooth="yes"/>
      <point x="1124" y="224"/>
      <point x="902" y="-23"/>
      <point x="608" y="-24" type="curve" smooth="yes"/>
      <point x="241" y="-25"/>
      <point x="100" y="269"/>
    </contour>
    <contour>
      <point x="615" y="63" type="curve" smooth="yes"/>
      <point x="846" y="58"/>
      <point x="973" y="238"/>
      <point x="973" y="568" type="curve" smooth="yes"/>
      <point x="973" y="838"/>
      <point x="876" y="1066"/>
      <point x="624" y="1070" type="curve" smooth="yes"/>
      <point x="393" y="1074"/>
      <point x="258" y="891"/>
      <point x="258" y="590" type="curve" smooth="yes"/>
      <point x="258" y="309"/>
      <point x="362" y="69"/>
    </contour>
  </outline>
</glyph>
<glyph name="otilde" format="1">
  <advance width="1231"/>
  <unicode hex="00F5"/>
  <outline>
    <contour>
      <point x="274" y="1439" type="curve"/>
      <point x="231" y="1498" type="line"/>
      <point x="284" y="1586"/>
      <point x="389" y="1662"/>
      <point x="496" y="1662" type="curve" smooth="yes"/>
      <point x="625" y="1662"/>
      <point x="672" y="1511"/>
      <point x="774" y="1511" type="curve" smooth="yes"/>
      <point x="857" y="1511"/>
      <point x="920" y="1567"/>
      <point x="966" y="1618" type="curve"/>
      <point x="1007" y="1559" type="line"/>
      <point x="957" y="1472"/>
      <point x="852" y="1394"/>
      <point x="744" y="1394" type="curve" smooth="yes"/>
      <point x="615" y="1394"/>
      <point x="568" y="1546"/>
      <point x="465" y="1546" type="curve" smooth="yes"/>
      <point x="380" y="1546"/>
      <point x="318" y="1490"/>
    </contour>
    <contour>
      <point x="104" y="581" type="curve" smooth="yes"/>
      <point x="109" y="934"/>
      <point x="353" y="1149"/>
      <point x="634" y="1152" type="curve" smooth="yes"/>
      <point x="984" y="1156"/>
      <point x="1129" y="877"/>
      <point x="1127" y="577" type="curve" smooth="yes"/>
      <point x="1124" y="224"/>
      <point x="902" y="-23"/>
      <point x="608" y="-24" type="curve" smooth="yes"/>
      <point x="241" y="-25"/>
      <point x="100" y="269"/>
    </contour>
    <contour>
      <point x="615" y="63" type="curve" smooth="yes"/>
      <point x="846" y="58"/>
      <point x="973" y="238"/>
      <point x="973" y="568" type="curve" smooth="yes"/>
      <point x="973" y="838"/>
      <point x="876" y="1066"/>
      <point x="624" y="1070" type="curve" smooth="yes"/>
      <point x="393" y="1074"/>
      <point x="258" y="891"/>
      <point x="258" y="590" type="curve" smooth="yes"/>
      <point x="258" y="309"/>
      <point x="362" y="69"/>
    </contour>
  </outline>
</glyph>
<glyph name="odieresis" format="1">
  <advance width="1231"/>
  <unicode hex="00F6"/>
  <outline>
    <contour>
      <point x="842" y="1425" type="curve" smooth="yes"/>
      <point x="791" y="1425"/>
      <point x="745" y="1459"/>
      <point x="745" y="1518" type="curve" smooth="yes"/>
      <point x="745" y="1580"/>
      <point x="804" y="1629"/>
      <point x="861" y="1629" type="curve" smooth="yes"/>
      <point x="929" y="1629"/>
      <point x="960" y="1586"/>
      <point x="960" y="1534" type="curve" smooth="yes"/>
      <point x="960" y="1468"/>
      <point x="901" y="1425"/>
    </contour>
    <contour>
      <point x="387" y="1425" type="curve" smooth="yes"/>
      <point x="336" y="1425"/>
      <point x="290" y="1459"/>
      <point x="290" y="1518" type="curve" smooth="yes"/>
      <point x="290" y="1580"/>
      <point x="349" y="1629"/>
      <point x="406" y="1629" type="curve" smooth="yes"/>
      <point x="474" y="1629"/>
      <point x="505" y="1586"/>
      <point x="505" y="1534" type="curve" smooth="yes"/>
      <point x="505" y="1468"/>
      <point x="446" y="1425"/>
    </contour>
    <contour>
      <point x="104" y="581" type="curve" smooth="yes"/>
      <point x="109" y="934"/>
      <point x="353" y="1149"/>
      <point x="634" y="1152" type="curve" smooth="yes"/>
      <point x="984" y="1156"/>
      <point x="1129" y="877"/>
      <point x="1127" y="577" type="curve" smooth="yes"/>
      <point x="1124" y="224"/>
      <point x="902" y="-23"/>
      <point x="608" y="-24" type="curve" smooth="yes"/>
      <point x="241" y="-25"/>
      <point x="100" y="269"/>
    </contour>
    <contour>
      <point x="615" y="63" type="curve" smooth="yes"/>
      <point x="846" y="58"/>
      <point x="973" y="238"/>
      <point x="973" y="568" type="curve" smooth="yes"/>
      <point x="973" y="838"/>
      <point x="876" y="1066"/>
      <point x="624" y="1070" type="curve" smooth="yes"/>
      <point x="393" y="1074"/>
      <point x="258" y="891"/>
      <point x="258" y="590" type="curve" smooth="yes"/>
      <point x="258" y="309"/>
      <point x="362" y="69"/>
    </contour>
  </outline>
</glyph>
<glyph name="ugrave" format="1">
  <advance width="1292"/>
  <unicode hex="00F9"/>
  <outline>
    <contour>
      <point x="717" y="1343" type="line"/>
      <point x="595" y="1425"/>
      <point x="406" y="1560"/>
      <point x="340" y="1661" type="curve"/>
      <point x="447" y="1770" type="line"/>
      <point x="759" y="1386" type="line"/>
    </contour>
    <contour>
      <point x="214" y="461" type="curve"/>
      <point x="214" y="1017" type="line"/>
      <point x="111" y="1037" type="line"/>
      <point x="111" y="1097" type="line"/>
      <point x="326" y="1139" type="line"/>
      <point x="356" y="1121" type="line"/>
      <point x="356" y="432" type="line" smooth="yes"/>
      <point x="356" y="188"/>
      <point x="394" y="83"/>
      <point x="595" y="83" type="curve" smooth="yes"/>
      <point x="751" y="83"/>
      <point x="889" y="183"/>
      <point x="928" y="219" type="curve"/>
      <point x="928" y="1007" type="line"/>
      <point x="803" y="1029" type="line"/>
      <point x="803" y="1093" type="line"/>
      <point x="1042" y="1138" type="line"/>
      <point x="1071" y="1121" type="line"/>
      <point x="1071" y="71" type="line"/>
      <point x="1197" y="71" type="line"/>
      <point x="1197" y="10" type="line"/>
      <point x="1159" y="-7"/>
      <point x="1083" y="-24"/>
      <point x="1034" y="-24" type="curve" smooth="yes"/>
      <point x="975" y="-24"/>
      <point x="942" y="0"/>
      <point x="942" y="52" type="curve" smooth="yes"/>
      <point x="942" y="142" type="line"/>
      <point x="812" y="35"/>
      <point x="675" y="-21"/>
      <point x="538" y="-21" type="curve" smooth="yes"/>
      <point x="224" y="-21"/>
      <point x="216" y="184"/>
    </contour>
  </outline>
</glyph>
<glyph name="thorn" format="1">
  <advance width="1269"/>
  <unicode hex="00FE"/>
  <outline>
    <contour>
      <point x="220" y="50" type="curve" smooth="yes"/>
      <point x="220" y="1500" type="line"/>
      <point x="49" y="1525" type="line"/>
      <point x="49" y="1593" type="line"/>
      <point x="329" y="1623" type="line"/>
      <point x="364" y="1606" type="line"/>
      <point x="364" y="1020" type="line"/>
      <point x="443" y="1083"/>
      <point x="562" y="1153"/>
      <point x="717" y="1153" type="curve" smooth="yes"/>
      <point x="944" y="1153"/>
      <point x="1163" y="1004"/>
      <point x="1163" y="605" type="curve" smooth="yes"/>
      <point x="1163" y="254"/>
      <point x="934" y="-28"/>
      <point x="597" y="-28" type="curve" smooth="yes"/>
      <point x="508" y="-28"/>
      <point x="425" y="-17"/>
      <point x="359" y="-2" type="curve"/>
      <point x="363" y="-101" type="line"/>
      <point x="363" y="-426" type="line"/>
      <point x="593" y="-444" type="line"/>
      <point x="593" y="-511" type="line"/>
      <point x="65" y="-511" type="line"/>
      <point x="65" y="-444" type="line"/>
      <point x="219" y="-424" type="line"/>
      <point x="219" y="-295"/>
      <point x="220" y="-53"/>
    </contour>
    <contour>
      <point x="364" y="134" type="line"/>
      <point x="385" y="78"/>
      <point x="500" y="55"/>
      <point x="615" y="55" type="curve" smooth="yes"/>
      <point x="818" y="55"/>
      <point x="1016" y="222"/>
      <point x="1019" y="570" type="curve" smooth="yes"/>
      <point x="1023" y="922"/>
      <point x="845" y="1046"/>
      <point x="659" y="1046" type="curve" smooth="yes"/>
      <point x="545" y="1046"/>
      <point x="429" y="999"/>
      <point x="364" y="938" type="curve"/>
    </contour>
  </outline>
</glyph>
<glyph name="Aogonek" format="1">
  <advance width="1493"/>
  <unicode hex="0104"/>
  <outline>
    <contour>
      <point x="2" y="0" type="line"/>
      <point x="2" y="67" type="line"/>
      <point x="148" y="91" type="line"/>
      <point x="686" y="1561" type="line"/>
      <point x="807" y="1561" type="line"/>
      <point x="1330" y="91" type="line"/>
      <point x="1495" y="67" type="line"/>
      <point x="1495" y="0" type="line"/>
      <point x="1323" y="0" type="line"/>
      <point x="1207" y="-32"/>
      <point x="996" y="-175"/>
      <point x="996" y="-297" type="curve" smooth="yes"/>
      <point x="996" y="-390"/>
      <point x="1044" y="-424"/>
      <point x="1139" y="-428" type="curve" smooth="yes"/>
      <point x="1227" y="-432"/>
      <point x="1318" y="-378"/>
      <point x="1358" y="-354" type="curve"/>
      <point x="1376" y="-426" type="line"/>
      <point x="1323" y="-467"/>
      <point x="1224" y="-533"/>
      <point x="1061" y="-527" type="curve"/>
      <point x="926" y="-521"/>
      <point x="860" y="-435"/>
      <point x="860" y="-338" type="curve" smooth="yes"/>
      <point x="860" y="-206"/>
      <point x="1018" y="-62"/>
      <point x="1174" y="0" type="curve"/>
      <point x="1007" y="0" type="line"/>
      <point x="1007" y="67" type="line"/>
      <point x="1175" y="91" type="line"/>
      <point x="1048" y="455" type="line"/>
      <point x="404" y="455" type="line"/>
      <point x="278" y="91" type="line"/>
      <point x="452" y="67" type="line"/>
      <point x="452" y="0" type="line"/>
    </contour>
    <contour>
      <point x="435" y="546" type="line"/>
      <point x="1017" y="546" type="line"/>
      <point x="803" y="1159" type="line"/>
      <point x="729" y="1392" type="line"/>
    </contour>
  </outline>
</glyph>
<glyph name="eogonek" format="1">
  <advance width="1145"/>
  <unicode hex="0119"/>
  <outline>
    <contour>
      <point x="103" y="556" type="curve" smooth="yes"/>
      <point x="103" y="898"/>
      <point x="332" y="1147"/>
      <point x="652" y="1152" type="curve" smooth="yes"/>
      <point x="882" y="1156"/>
      <point x="1031" y="1001"/>
      <point x="1037" y="736" type="curve" smooth="yes"/>
      <point x="1039" y="669"/>
      <point x="1033" y="617"/>
      <point x="1027" y="574" type="curve"/>
      <point x="250" y="574" type="line"/>
      <point x="250" y="563" type="line"/>
      <point x="245" y="230"/>
      <point x="430" y="80"/>
      <point x="653" y="80" type="curve" smooth="yes"/>
      <point x="781" y="80"/>
      <point x="923" y="119"/>
      <point x="979" y="157" type="curve"/>
      <point x="1010" y="88" type="line"/>
      <point x="1008" y="87"/>
      <point x="1007" y="85"/>
      <point x="1006" y="84" type="curve" smooth="yes"/>
      <point x="1013" y="87" type="line"/>
      <point x="846" y="-41"/>
      <point x="689" y="-146"/>
      <point x="689" y="-268" type="curve" smooth="yes"/>
      <point x="689" y="-438"/>
      <point x="901" y="-442"/>
      <point x="1015" y="-369" type="curve"/>
      <point x="1015" y="-444" type="line"/>
      <point x="882" y="-550"/>
      <point x="553" y="-550"/>
      <point x="553" y="-304" type="curve" smooth="yes"/>
      <point x="553" y="-197"/>
      <point x="648" y="-81"/>
      <point x="773" y="-7" type="curve"/>
      <point x="716" y="-18"/>
      <point x="657" y="-24"/>
      <point x="601" y="-24" type="curve" smooth="yes"/>
      <point x="279" y="-24"/>
      <point x="103" y="205"/>
    </contour>
    <contour>
      <point x="253" y="664" type="curve"/>
      <point x="884" y="664" type="line"/>
      <point x="896" y="832"/>
      <point x="864" y="977"/>
      <point x="750" y="1038" type="curve" smooth="yes"/>
      <point x="713" y="1058"/>
      <point x="668" y="1069"/>
      <point x="614" y="1069" type="curve" smooth="yes"/>
      <point x="431" y="1069"/>
      <point x="279" y="933"/>
    </contour>
  </outline>
</glyph>
<glyph name="Itilde" format="1">
  <advance width="763"/>
  <unicode hex="0128"/>
  <outline>
    <contour>
      <point x="36" y="1701" type="curve"/>
      <point x="-6" y="1760" type="line"/>
      <point x="46" y="1848"/>
      <point x="151" y="1920"/>
      <point x="258" y="1920" type="curve" smooth="yes"/>
      <point x="387" y="1920"/>
      <point x="434" y="1775"/>
      <point x="536" y="1775" type="curve" smooth="yes"/>
      <point x="620" y="1775"/>
      <point x="683" y="1822"/>
      <point x="728" y="1873" type="curve"/>
      <point x="769" y="1813" type="line"/>
      <point x="719" y="1727"/>
      <point x="614" y="1653"/>
      <point x="507" y="1653" type="curve" smooth="yes"/>
      <point x="377" y="1653"/>
      <point x="330" y="1800"/>
      <point x="228" y="1800" type="curve" smooth="yes"/>
      <point x="148" y="1800"/>
      <point x="80" y="1752"/>
    </contour>
    <contour>
      <point x="136" y="0" type="line"/>
      <point x="136" y="67" type="line"/>
      <point x="305" y="91" type="line"/>
      <point x="305" y="1462" type="line"/>
      <point x="139" y="1477" type="line"/>
      <point x="139" y="1553" type="line"/>
      <point x="621" y="1553" type="line"/>
      <point x="621" y="1477" type="line"/>
      <point x="453" y="1462" type="line"/>
      <point x="453" y="91" type="line"/>
      <point x="629" y="67" type="line"/>
      <point x="629" y="0" type="line"/>
    </contour>
  </outline>
</glyph>
<glyph name="itilde" format="1">
  <advance width="683"/>
  <unicode hex="0129"/>
  <outline>
    <contour>
      <point x="8" y="1439" type="curve"/>
      <point x="-34" y="1498" type="line"/>
      <point x="18" y="1586"/>
      <point x="123" y="1662"/>
      <point x="231" y="1662" type="curve" smooth="yes"/>
      <point x="360" y="1662"/>
      <point x="406" y="1511"/>
      <point x="508" y="1511" type="curve" smooth="yes"/>
      <point x="592" y="1511"/>
      <point x="655" y="1567"/>
      <point x="700" y="1618" type="curve"/>
      <point x="742" y="1559" type="line"/>
      <point x="691" y="1472"/>
      <point x="586" y="1394"/>
      <point x="479" y="1394" type="curve" smooth="yes"/>
      <point x="350" y="1394"/>
      <point x="303" y="1546"/>
      <point x="200" y="1546" type="curve" smooth="yes"/>
      <point x="115" y="1546"/>
      <point x="53" y="1490"/>
    </contour>
    <contour>
      <point x="140" y="0" type="line"/>
      <point x="140" y="68" type="line"/>
      <point x="305" y="84" type="line"/>
      <point x="305" y="971" type="line"/>
      <point x="161" y="1021" type="line"/>
      <point x="161" y="1072" type="line"/>
      <point x="406" y="1133" type="line"/>
      <point x="444" y="1114" type="line"/>
      <point x="444" y="85" type="line"/>
      <point x="611" y="68" type="line"/>
      <point x="611" y="0" type="line"/>
    </contour>
  </outline>
</glyph>
<glyph name="ij" format="1">
  <advance width="1332"/>
  <unicode hex="0133"/>
  <outline>
    <contour>
      <point x="340" y="1415" type="curve" smooth="yes"/>
      <point x="289" y="1415"/>
      <point x="241" y="1452"/>
      <point x="241" y="1512" type="curve" smooth="yes"/>
      <point x="241" y="1578"/>
      <point x="302" y="1627"/>
      <point x="358" y="1627" type="curve" smooth="yes"/>
      <point x="427" y="1627"/>
      <point x="458" y="1583"/>
      <point x="458" y="1529" type="curve" smooth="yes"/>
      <point x="458" y="1460"/>
      <point x="399" y="1415"/>
    </contour>
    <contour>
      <point x="1020" y="1408" type="curve" smooth="yes"/>
      <point x="969" y="1408"/>
      <point x="921" y="1444"/>
      <point x="921" y="1505" type="curve" smooth="yes"/>
      <point x="921" y="1571"/>
      <point x="982" y="1620"/>
      <point x="1038" y="1620" type="curve" smooth="yes"/>
      <point x="1107" y="1620"/>
      <point x="1138" y="1576"/>
      <point x="1138" y="1522" type="curve" smooth="yes"/>
      <point x="1138" y="1453"/>
      <point x="1079" y="1408"/>
    </contour>
    <contour>
      <point x="140" y="0" type="line"/>
      <point x="140" y="68" type="line"/>
      <point x="305" y="84" type="line"/>
      <point x="305" y="971" type="line"/>
      <point x="161" y="1021" type="line"/>
      <point x="161" y="1072" type="line"/>
      <point x="406" y="1133" type="line"/>
      <point x="444" y="1114" type="line"/>
      <point x="444" y="85" type="line"/>
      <point x="611" y="68" type="line"/>
      <point x="611" y="0" type="line"/>
    </contour>
    <contour>
      <point x="673" y="-395" type="line"/>
      <point x="695" y="-402"/>
      <point x="759" y="-406"/>
      <point x="783" y="-406" type="curve" smooth="yes"/>
      <point x="912" y="-406"/>
      <point x="986" y="-320"/>
      <point x="986" y="-2" type="curve" smooth="yes"/>
      <point x="986" y="971" type="line"/>
      <point x="835" y="1021" type="line"/>
      <point x="835" y="1072" type="line"/>
      <point x="1089" y="1132" type="line"/>
      <point x="1127" y="1114" type="line"/>
      <point x="1127" y="-16" type="line" smooth="yes"/>
      <point x="1127" y="-328"/>
      <point x="1003" y="-515"/>
      <point x="782" y="-515" type="curve" smooth="yes"/>
      <point x="755" y="-515"/>
      <point x="684" y="-509"/>
      <point x="673" y="-500" type="curve"/>
    </contour>
  </outline>
</glyph>
<glyph name="Jcircumflex" format="1">
  <advance width="720"/>
  <unicode hex="0134"/>
  <outline>
    <contour>
      <point x="89" y="1617" type="line"/>
      <point x="26" y="1654" type="line"/>
      <point x="295" y="1920" type="line"/>
      <point x="441" y="1920" type="line"/>
      <point x="711" y="1656" type="line"/>
      <point x="640" y="1617" type="line"/>
      <point x="368" y="1817" type="line"/>
    </contour>
    <contour>
      <point x="250" y="-60" type="curve"/>
      <point x="290" y="57"/>
      <point x="292" y="197"/>
      <point x="292" y="401" type="curve" smooth="yes"/>
      <point x="292" y="1462" type="line"/>
      <point x="117" y="1477" type="line"/>
      <point x="117" y="1553" type="line"/>
      <point x="621" y="1553" type="line"/>
      <point x="621" y="1477" type="line"/>
      <point x="441" y="1462" type="line"/>
      <point x="441" y="475" type="line" smooth="yes"/>
      <point x="441" y="311"/>
      <point x="446" y="159"/>
      <point x="423" y="35" type="curve"/>
      <point x="375" y="-205"/>
      <point x="161" y="-358"/>
      <point x="-43" y="-387" type="curve"/>
      <point x="-86" y="-328" type="line"/>
      <point x="77" y="-284"/>
      <point x="199" y="-188"/>
    </contour>
  </outline>
</glyph>
<glyph name="kcommaaccent" format="1">
  <advance width="1274"/>
  <unicode hex="0137"/>
  <outline>
    <contour>
      <point x="121" y="0" type="line"/>
      <point x="121" y="68" type="line"/>
      <point x="283" y="85" type="line"/>
      <point x="283" y="1496" type="line"/>
      <point x="107" y="1520" type="line"/>
      <point x="107" y="1589" type="line"/>
      <point x="393" y="1623" type="line"/>
      <point x="428" y="1602" type="line"/>
      <point x="428" y="763" type="line"/>
      <point x="424" y="540" type="line"/>
      <point x="932" y="1035" type="line"/>
      <point x="782" y="1047" type="line"/>
      <point x="782" y="1129" type="line"/>
      <point x="1221" y="1129" type="line"/>
      <point x="1221" y="1048" type="line"/>
      <point x="1066" y="1034" type="line"/>
      <point x="694" y="678" type="line"/>
      <point x="1143" y="85" type="line"/>
      <point x="1290" y="67" type="line"/>
      <point x="1290" y="0" type="line"/>
      <point x="834" y="0" type="line"/>
      <point x="834" y="67" type="line"/>
      <point x="982" y="86" type="line"/>
      <point x="606" y="604" type="line"/>
      <point x="423" y="432" type="line"/>
      <point x="428" y="196" type="line"/>
      <point x="428" y="85" type="line"/>
      <point x="583" y="68" type="line"/>
      <point x="583" y="0" type="line"/>
    </contour>
    <contour>
      <point x="598" y="-149" type="line"/>
      <point x="671" y="-74" type="line"/>
      <point x="801" y="-98"/>
      <point x="869" y="-207"/>
      <point x="871" y="-302" type="curve" smooth="yes"/>
      <point x="873" y="-470"/>
      <point x="737" y="-604"/>
      <point x="638" y="-640" type="curve"/>
      <point x="597" y="-603" type="line"/>
      <point x="597" y="-576" type="line"/>
      <point x="676" y="-542"/>
      <point x="718" y="-434"/>
      <point x="718" y="-333" type="curve" smooth="yes"/>
      <point x="718" y="-246"/>
      <point x="646" y="-192"/>
      <point x="598" y="-192" type="curve"/>
    </contour>
  </outline>
</glyph>
<glyph name="ldot" format="1">
  <advance width="1011"/>
  <unicode hex="0140"/>
  <outline>
    <contour>
      <point x="137" y="0" type="line"/>
      <point x="137" y="68" type="line"/>
      <point x="304" y="85" type="line"/>
      <point x="304" y="1496" type="line"/>
      <point x="141" y="1520" type="line"/>
      <point x="141" y="1589" type="line"/>
      <point x="413" y="1623" type="line"/>
      <point x="448" y="1602" type="line"/>
      <point x="448" y="84" type="line"/>
      <point x="624" y="68" type="line"/>
      <point x="624" y="0" type="line"/>
    </contour>
    <contour>
      <point x="844" y="718" type="curve" smooth="yes"/>
      <point x="800" y="725"/>
      <point x="767" y="763"/>
      <point x="776" y="815" type="curve" smooth="yes"/>
      <point x="785" y="871"/>
      <point x="842" y="906"/>
      <point x="890" y="901" type="curve" smooth="yes"/>
      <point x="949" y="894"/>
      <point x="967" y="849"/>
      <point x="959" y="803" type="curve"/>
      <point x="952" y="744"/>
      <point x="894" y="711"/>
    </contour>
  </outline>
</glyph>
<glyph name="Lslash" format="1">
  <advance width="1244"/>
  <unicode hex="0141"/>
  <outline>
    <contour>
      <point x="106" y="0" type="line"/>
      <point x="106" y="67" type="line"/>
      <point x="286" y="92" type="line"/>
      <point x="286" y="588" type="line"/>
      <point x="88" y="509" type="line"/>
      <point x="88" y="509"/>
      <point x="89" y="618"/>
      <point x="89" y="620" type="curve"/>
      <point x="88" y="620"/>
      <point x="171" y="654"/>
      <point x="286" y="702" type="curve"/>
      <point x="286" y="1454" type="line"/>
      <point x="110" y="1469" type="line"/>
      <point x="110" y="1553" type="line"/>
      <point x="629" y="1553" type="line"/>
      <point x="629" y="1469" type="line"/>
      <point x="434" y="1454" type="line"/>
      <point x="433" y="763" type="line"/>
      <point x="682" y="865"/>
      <point x="973" y="985"/>
      <point x="973" y="985" type="curve"/>
      <point x="973" y="864" type="line"/>
      <point x="433" y="647" type="line"/>
      <point x="433" y="86" type="line"/>
      <point x="1038" y="105" type="line"/>
      <point x="1146" y="350" type="line"/>
      <point x="1214" y="318" type="line"/>
      <point x="1149" y="0" type="line"/>
    </contour>
  </outline>
</glyph>
<glyph name="lslash" format="1">
  <advance width="698"/>
  <unicode hex="0142"/>
  <outline>
    <contour>
      <point x="137" y="0" type="line"/>
      <point x="137" y="68" type="line"/>
      <point x="304" y="85" type="line"/>
      <point x="304" y="797" type="line"/>
      <point x="122" y="725" type="line"/>
      <point x="122" y="829" type="line"/>
      <point x="304" y="904" type="line"/>
      <point x="304" y="1496" type="line"/>
      <point x="141" y="1520" type="line"/>
      <point x="141" y="1589" type="line"/>
      <point x="413" y="1623" type="line"/>
      <point x="448" y="1602" type="line"/>
      <point x="448" y="963" type="line"/>
      <point x="647" y="1046" type="line"/>
      <point x="647" y="934" type="line"/>
      <point x="448" y="855" type="line"/>
      <point x="448" y="84" type="line"/>
      <point x="624" y="68" type="line"/>
      <point x="624" y="0" type="line"/>
    </contour>
  </outline>
</glyph>
<glyph name="nacute" format="1">
  <advance width="1396"/>
  <unicode hex="0144"/>
  <outline>
    <contour>
      <point x="660" y="1343" type="curve"/>
      <point x="617" y="1386" type="line"/>
      <point x="930" y="1770" type="line"/>
      <point x="1037" y="1661" type="line"/>
      <point x="974" y="1564"/>
      <point x="781" y="1425"/>
    </contour>
    <contour>
      <point x="137" y="0" type="line"/>
      <point x="137" y="68" type="line"/>
      <point x="280" y="86" type="line"/>
      <point x="280" y="968" type="line"/>
      <point x="133" y="1021" type="line"/>
      <point x="133" y="1072" type="line"/>
      <point x="370" y="1133" type="line"/>
      <point x="407" y="1114" type="line"/>
      <point x="407" y="976" type="line"/>
      <point x="497" y="1049"/>
      <point x="692" y="1137"/>
      <point x="829" y="1142" type="curve"/>
      <point x="1080" y="1149"/>
      <point x="1171" y="1022"/>
      <point x="1171" y="663" type="curve" smooth="yes"/>
      <point x="1171" y="85" type="line"/>
      <point x="1334" y="68" type="line"/>
      <point x="1334" y="0" type="line"/>
      <point x="873" y="0" type="line"/>
      <point x="873" y="68" type="line"/>
      <point x="1027" y="85" type="line"/>
      <point x="1027" y="645" type="line" smooth="yes"/>
      <point x="1027" y="929"/>
      <point x="966" y="1038"/>
      <point x="765" y="1031" type="curve" smooth="yes"/>
      <point x="663" y="1027"/>
      <point x="526" y="976"/>
      <point x="425" y="907" type="curve"/>
      <point x="425" y="85" type="line"/>
      <point x="583" y="68" type="line"/>
      <point x="583" y="0" type="line"/>
    </contour>
  </outline>
</glyph>
<glyph name="OE" format="1">
  <advance width="2079"/>
  <unicode hex="0152"/>
  <outline>
    <contour>
      <point x="90" y="759" type="curve" smooth="yes"/>
      <point x="100" y="1267"/>
      <point x="415" y="1559"/>
      <point x="801" y="1566" type="curve" smooth="yes"/>
      <point x="860" y="1567"/>
      <point x="914" y="1562"/>
      <point x="964" y="1553" type="curve"/>
      <point x="1910" y="1553" type="line"/>
      <point x="1939" y="1267" type="line"/>
      <point x="1854" y="1267" type="line"/>
      <point x="1808" y="1460" type="line"/>
      <point x="1215" y="1472" type="line"/>
      <point x="1215" y="867" type="line"/>
      <point x="1620" y="874" type="line"/>
      <point x="1647" y="1034" type="line"/>
      <point x="1726" y="1034" type="line"/>
      <point x="1726" y="610" type="line"/>
      <point x="1647" y="610" type="line"/>
      <point x="1620" y="778" type="line"/>
      <point x="1215" y="784" type="line"/>
      <point x="1215" y="84" type="line"/>
      <point x="1847" y="100" type="line"/>
      <point x="1938" y="333" type="line"/>
      <point x="2012" y="315" type="line"/>
      <point x="1967" y="0" type="line"/>
      <point x="972" y="0" type="line"/>
      <point x="911" y="-17"/>
      <point x="844" y="-27"/>
      <point x="771" y="-28" type="curve" smooth="yes"/>
      <point x="357" y="-34"/>
      <point x="81" y="294"/>
    </contour>
    <contour>
      <point x="788" y="54" type="curve" smooth="yes"/>
      <point x="904" y="54"/>
      <point x="998" y="94"/>
      <point x="1068" y="168" type="curve"/>
      <point x="1068" y="1360" type="line"/>
      <point x="997" y="1436"/>
      <point x="903" y="1483"/>
      <point x="786" y="1483" type="curve" smooth="yes"/>
      <point x="469" y="1483"/>
      <point x="252" y="1210"/>
      <point x="252" y="760" type="curve" smooth="yes"/>
      <point x="252" y="364"/>
      <point x="456" y="54"/>
    </contour>
  </outline>
</glyph>
<glyph name="oe" format="1">
  <advance width="2061"/>
  <unicode hex="0153"/>
  <outline>
    <contour>
      <point x="104" y="581" type="curve" smooth="yes"/>
      <point x="109" y="934"/>
      <point x="353" y="1149"/>
      <point x="634" y="1152" type="curve" smooth="yes"/>
      <point x="874" y="1154"/>
      <point x="1017" y="1025"/>
      <point x="1083" y="846" type="curve"/>
      <point x="1172" y="1030"/>
      <point x="1349" y="1148"/>
      <point x="1569" y="1152" type="curve" smooth="yes"/>
      <point x="1798" y="1156"/>
      <point x="1947" y="1001"/>
      <point x="1953" y="736" type="curve" smooth="yes"/>
      <point x="1955" y="669"/>
      <point x="1949" y="617"/>
      <point x="1944" y="574" type="curve"/>
      <point x="1166" y="574" type="line"/>
      <point x="1166" y="563" type="line"/>
      <point x="1161" y="230"/>
      <point x="1347" y="80"/>
      <point x="1570" y="80" type="curve" smooth="yes"/>
      <point x="1697" y="80"/>
      <point x="1839" y="119"/>
      <point x="1895" y="157" type="curve"/>
      <point x="1926" y="88" type="line"/>
      <point x="1848" y="18"/>
      <point x="1668" y="-24"/>
      <point x="1517" y="-24" type="curve" smooth="yes"/>
      <point x="1289" y="-24"/>
      <point x="1135" y="90"/>
      <point x="1064" y="281" type="curve"/>
      <point x="978" y="93"/>
      <point x="810" y="-23"/>
      <point x="608" y="-24" type="curve" smooth="yes"/>
      <point x="241" y="-25"/>
      <point x="100" y="269"/>
    </contour>
    <contour>
      <point x="615" y="63" type="curve" smooth="yes"/>
      <point x="846" y="58"/>
      <point x="973" y="238"/>
      <point x="973" y="568" type="curve" smooth="yes"/>
      <point x="973" y="838"/>
      <point x="876" y="1066"/>
      <point x="624" y="1070" type="curve" smooth="yes"/>
      <point x="393" y="1074"/>
      <point x="258" y="891"/>
      <point x="258" y="590" type="curve" smooth="yes"/>
      <point x="258" y="309"/>
      <point x="362" y="69"/>
    </contour>
    <contour>
      <point x="1170" y="664" type="curve"/>
      <point x="1801" y="664" type="line"/>
      <point x="1812" y="832"/>
      <point x="1780" y="977"/>
      <point x="1666" y="1038" type="curve" smooth="yes"/>
      <point x="1630" y="1058"/>
      <point x="1585" y="1069"/>
      <point x="1530" y="1069" type="curve" smooth="yes"/>
      <point x="1348" y="1069"/>
      <point x="1196" y="933"/>
    </contour>
  </outline>
</glyph>
<glyph name="Scaron" format="1">
  <advance width="1229"/>
  <unicode hex="0160"/>
  <outline>
    <contour>
      <point x="580" y="1631" type="line"/>
      <point x="318" y="1879" type="line"/>
      <point x="384" y="1920" type="line"/>
      <point x="650" y="1736" type="line"/>
      <point x="920" y="1920" type="line"/>
      <point x="979" y="1881" type="line"/>
      <point x="720" y="1631" type="line"/>
    </contour>
    <contour>
      <point x="150" y="63" type="curve"/>
      <point x="150" y="362" type="line"/>
      <point x="223" y="362" type="line"/>
      <point x="270" y="158" type="line"/>
      <point x="354" y="79"/>
      <point x="507" y="57"/>
      <point x="625" y="57" type="curve" smooth="yes"/>
      <point x="795" y="57"/>
      <point x="984" y="136"/>
      <point x="984" y="355" type="curve"/>
      <point x="983" y="539"/>
      <point x="790" y="636"/>
      <point x="591" y="733" type="curve" smooth="yes"/>
      <point x="379" y="837"/>
      <point x="161" y="950"/>
      <point x="160" y="1177" type="curve"/>
      <point x="160" y="1458"/>
      <point x="440" y="1566"/>
      <point x="646" y="1566" type="curve" smooth="yes"/>
      <point x="851" y="1566"/>
      <point x="971" y="1522"/>
      <point x="1030" y="1487" type="curve"/>
      <point x="1030" y="1220" type="line"/>
      <point x="962" y="1220" type="line"/>
      <point x="903" y="1419" type="line"/>
      <point x="845" y="1470"/>
      <point x="739" y="1489"/>
      <point x="633" y="1488" type="curve"/>
      <point x="489" y="1488"/>
      <point x="297" y="1411"/>
      <point x="297" y="1200" type="curve"/>
      <point x="298" y="1031"/>
      <point x="475" y="939"/>
      <point x="665" y="849" type="curve"/>
      <point x="884" y="743"/>
      <point x="1122" y="630"/>
      <point x="1122" y="394" type="curve" smooth="yes"/>
      <point x="1122" y="101"/>
      <point x="887" y="-23"/>
      <point x="606" y="-23" type="curve" smooth="yes"/>
      <point x="407" y="-23"/>
      <point x="207" y="28"/>
    </contour>
  </outline>
</glyph>
<glyph name="Ydieresis" format="1">
  <advance width="1352"/>
  <unicode hex="0178"/>
  <outline>
    <contour>
      <point x="921" y="1689" type="curve" smooth="yes"/>
      <point x="870" y="1689"/>
      <point x="822" y="1726"/>
      <point x="822" y="1784" type="curve" smooth="yes"/>
      <point x="822" y="1847"/>
      <point x="883" y="1897"/>
      <point x="939" y="1897" type="curve" smooth="yes"/>
      <point x="1008" y="1897"/>
      <point x="1039" y="1853"/>
      <point x="1039" y="1801" type="curve" smooth="yes"/>
      <point x="1039" y="1735"/>
      <point x="980" y="1689"/>
    </contour>
    <contour>
      <point x="464" y="1690" type="curve" smooth="yes"/>
      <point x="413" y="1690"/>
      <point x="365" y="1726"/>
      <point x="365" y="1785" type="curve" smooth="yes"/>
      <point x="365" y="1848"/>
      <point x="426" y="1897"/>
      <point x="482" y="1897" type="curve" smooth="yes"/>
      <point x="551" y="1897"/>
      <point x="581" y="1853"/>
      <point x="581" y="1802" type="curve" smooth="yes"/>
      <point x="581" y="1735"/>
      <point x="523" y="1690"/>
    </contour>
    <contour>
      <point x="422" y="0" type="line"/>
      <point x="422" y="67" type="line"/>
      <point x="625" y="92" type="line"/>
      <point x="625" y="640" type="line"/>
      <point x="134" y="1462" type="line"/>
      <point x="12" y="1477" type="line"/>
      <point x="12" y="1553" type="line"/>
      <point x="472" y="1553" type="line"/>
      <point x="472" y="1476" type="line"/>
      <point x="304" y="1462" type="line"/>
      <point x="655" y="829" type="line"/>
      <point x="708" y="722" type="line"/>
      <point x="757" y="830" type="line"/>
      <point x="1077" y="1461" type="line"/>
      <point x="906" y="1477" type="line"/>
      <point x="906" y="1553" type="line"/>
      <point x="1337" y="1553" type="line"/>
      <point x="1337" y="1477" type="line"/>
      <point x="1202" y="1455" type="line"/>
      <point x="772" y="637" type="line"/>
      <point x="772" y="92" type="line"/>
      <point x="983" y="67" type="line"/>
      <point x="983" y="0" type="line"/>
    </contour>
  </outline>
</glyph>
<glyph name="Zdotaccent" format="1">
  <advance width="1352"/>
  <unicode hex="017B"/>
  <outline>
    <contour>
      <point x="723" y="1690" type="curve" smooth="yes"/>
      <point x="672" y="1690"/>
      <point x="624" y="1726"/>
      <point x="624" y="1785" type="curve" smooth="yes"/>
      <point x="624" y="1848"/>
      <point x="685" y="1897"/>
      <point x="741" y="1897" type="curve" smooth="yes"/>
      <point x="810" y="1897"/>
      <point x="840" y="1853"/>
      <point x="840" y="1802" type="curve" smooth="yes"/>
      <point x="840" y="1735"/>
      <point x="782" y="1690"/>
    </contour>
    <contour>
      <point x="98" y="70" type="line"/>
      <point x="988" y="1325" type="line"/>
      <point x="1105" y="1470" type="line"/>
      <point x="321" y="1452" type="line"/>
      <point x="244" y="1228" type="line"/>
      <point x="161" y="1241" type="line"/>
      <point x="190" y="1554" type="line"/>
      <point x="1246" y="1554" type="line"/>
      <point x="1269" y="1487" type="line"/>
      <point x="396" y="248" type="line"/>
      <point x="269" y="85" type="line"/>
      <point x="1096" y="115" type="line"/>
      <point x="1211" y="367" type="line"/>
      <point x="1290" y="349" type="line"/>
      <point x="1218" y="1" type="line"/>
      <point x="122" y="1" type="line"/>
    </contour>
  </outline>
</glyph>
<glyph name="zdotaccent" format="1">
  <advance width="1078"/>
  <unicode hex="017C"/>
  <outline>
    <contour>
      <point x="539" y="1410" type="curve" smooth="yes"/>
      <point x="488" y="1410"/>
      <point x="440" y="1446"/>
      <point x="440" y="1505" type="curve" smooth="yes"/>
      <point x="440" y="1568"/>
      <point x="501" y="1617"/>
      <point x="557" y="1617" type="curve" smooth="yes"/>
      <point x="626" y="1617"/>
      <point x="657" y="1573"/>
      <point x="657" y="1522" type="curve" smooth="yes"/>
      <point x="657" y="1455"/>
      <point x="598" y="1410"/>
    </contour>
    <contour>
      <point x="88" y="70" type="line"/>
      <point x="165" y="172" type="line"/>
      <point x="743" y="943" type="line"/>
      <point x="829" y="1047" type="line"/>
      <point x="255" y="1031" type="line"/>
      <point x="207" y="841" type="line"/>
      <point x="135" y="841" type="line"/>
      <point x="137" y="1119" type="line"/>
      <point x="977" y="1119" type="line"/>
      <point x="1000" y="1052" type="line"/>
      <point x="360" y="203" type="line"/>
      <point x="260" y="77" type="line"/>
      <point x="884" y="96" type="line"/>
      <point x="941" y="276" type="line"/>
      <point x="964" y="276"/>
      <point x="996" y="275"/>
      <point x="1019" y="275" type="curve"/>
      <point x="1002" y="0" type="line"/>
      <point x="117" y="0" type="line"/>
    </contour>
  </outline>
</glyph>
<glyph name="florin" format="1">
  <advance width="1063"/>
  <unicode hex="0192"/>
  <outline>
    <contour>
      <point x="303" y="-355" type="line"/>
      <point x="404" y="996" type="line"/>
      <point x="179" y="996" type="line"/>
      <point x="183" y="1056" type="line"/>
      <point x="413" y="1100" type="line"/>
      <point x="422" y="1205" type="line"/>
      <point x="446" y="1503"/>
      <point x="684" y="1682"/>
      <point x="859" y="1682" type="curve" smooth="yes"/>
      <point x="940" y="1682"/>
      <point x="975" y="1675"/>
      <point x="1000" y="1665" type="curve"/>
      <point x="991" y="1536" type="line"/>
      <point x="968" y="1550"/>
      <point x="910" y="1565"/>
      <point x="821" y="1565" type="curve" smooth="yes"/>
      <point x="709" y="1565"/>
      <point x="592" y="1518"/>
      <point x="571" y="1261" type="curve"/>
      <point x="556" y="1100" type="line"/>
      <point x="885" y="1100" type="line"/>
      <point x="877" y="996" type="line"/>
      <point x="548" y="996" type="line"/>
      <point x="447" y="-355" type="line"/>
    </contour>
  </outline>
</glyph>
<glyph name="breve" format="1">
  <advance width="1063"/>
  <unicode hex="02D8"/>
  <outline>
    <contour>
      <point x="529" y="1393" type="curve" smooth="yes"/>
      <point x="326" y="1393"/>
      <point x="200" y="1543"/>
      <point x="200" y="1706" type="curve"/>
      <point x="275" y="1706" type="line"/>
      <point x="288" y="1643"/>
      <point x="342" y="1501"/>
      <point x="532" y="1501" type="curve" smooth="yes"/>
      <point x="726" y="1501"/>
      <point x="776" y="1647"/>
      <point x="790" y="1707" type="curve"/>
      <point x="862" y="1707" type="line"/>
      <point x="862" y="1540"/>
      <point x="724" y="1393"/>
    </contour>
  </outline>
</glyph>
<glyph name="dotaccent" format="1">
  <advance width="504"/>
  <unicode hex="02D9"/>
  <outline>
    <contour>
      <point x="241" y="1410" type="curve" smooth="yes"/>
      <point x="190" y="1410"/>
      <point x="142" y="1446"/>
      <point x="142" y="1505" type="curve" smooth="yes"/>
      <point x="142" y="1568"/>
      <point x="203" y="1617"/>
      <point x="259" y="1617" type="curve" smooth="yes"/>
      <point x="328" y="1617"/>
      <point x="358" y="1573"/>
      <point x="358" y="1522" type="curve" smooth="yes"/>
      <point x="358" y="1455"/>
      <point x="300" y="1410"/>
    </contour>
  </outline>
</glyph>
<glyph name="ogonek" format="1">
  <advance width="709"/>
  <unicode hex="02DB"/>
  <outline>
    <contour>
      <point x="264" y="0" type="curve"/>
      <point x="333" y="8" type="line"/>
      <point x="413" y="0" type="line"/>
      <point x="297" y="-32"/>
      <point x="86" y="-175"/>
      <point x="86" y="-297" type="curve" smooth="yes"/>
      <point x="86" y="-390"/>
      <point x="134" y="-424"/>
      <point x="229" y="-428" type="curve" smooth="yes"/>
      <point x="317" y="-432"/>
      <point x="408" y="-378"/>
      <point x="448" y="-354" type="curve"/>
      <point x="466" y="-426" type="line"/>
      <point x="413" y="-467"/>
      <point x="314" y="-533"/>
      <point x="151" y="-527" type="curve"/>
      <point x="16" y="-521"/>
      <point x="-50" y="-435"/>
      <point x="-50" y="-338" type="curve" smooth="yes"/>
      <point x="-50" y="-206"/>
      <point x="108" y="-62"/>
    </contour>
  </outline>
</glyph>
<glyph name="tilde" format="1">
  <advance width="886"/>
  <unicode hex="02DC"/>
  <outline>
    <contour>
      <point x="97" y="1439" type="curve"/>
      <point x="55" y="1498" type="line"/>
      <point x="107" y="1586"/>
      <point x="212" y="1662"/>
      <point x="320" y="1662" type="curve" smooth="yes"/>
      <point x="449" y="1662"/>
      <point x="496" y="1511"/>
      <point x="598" y="1511" type="curve" smooth="yes"/>
      <point x="681" y="1511"/>
      <point x="744" y="1567"/>
      <point x="789" y="1618" type="curve"/>
      <point x="831" y="1559" type="line"/>
      <point x="780" y="1472"/>
      <point x="676" y="1394"/>
      <point x="568" y="1394" type="curve" smooth="yes"/>
      <point x="439" y="1394"/>
      <point x="392" y="1546"/>
      <point x="289" y="1546" type="curve" smooth="yes"/>
      <point x="204" y="1546"/>
      <point x="142" y="1490"/>
    </contour>
  </outline>
</glyph>
<glyph name="hungarumlaut" format="1">
  <advance width="847"/>
  <unicode hex="02DD"/>
  <outline>
    <contour>
      <point x="686" y="1343" type="curve"/>
      <point x="644" y="1386" type="line"/>
      <point x="976" y="1790" type="line"/>
      <point x="1069" y="1701" type="line"/>
      <point x="998" y="1606"/>
      <point x="804" y="1436"/>
    </contour>
    <contour>
      <point x="206" y="1343" type="curve"/>
      <point x="163" y="1386" type="line"/>
      <point x="496" y="1790" type="line"/>
      <point x="589" y="1701" type="line"/>
      <point x="518" y="1606"/>
      <point x="323" y="1436"/>
    </contour>
  </outline>
</glyph>
<glyph name="Omega" format="1">
  <advance width="1948"/>
  <unicode hex="03A9"/>
  <unicode hex="2126"/>
  <outline>
    <contour>
      <point x="142" y="0" type="line"/>
      <point x="142" y="335" type="line"/>
      <point x="218" y="342" type="line"/>
      <point x="249" y="136" type="line"/>
      <point x="615" y="136" type="line"/>
      <point x="430" y="256"/>
      <point x="232" y="522"/>
      <point x="238" y="815" type="curve" smooth="yes"/>
      <point x="248" y="1319"/>
      <point x="587" y="1550"/>
      <point x="946" y="1550" type="curve" smooth="yes"/>
      <point x="1338" y="1550"/>
      <point x="1618" y="1295"/>
      <point x="1609" y="848" type="curve" smooth="yes"/>
      <point x="1603" y="581"/>
      <point x="1415" y="275"/>
      <point x="1238" y="136" type="curve"/>
      <point x="1609" y="136" type="line"/>
      <point x="1677" y="363" type="line"/>
      <point x="1753" y="356" type="line"/>
      <point x="1710" y="0" type="line"/>
      <point x="1071" y="0" type="line"/>
      <point x="1071" y="121" type="line"/>
      <point x="1278" y="241"/>
      <point x="1446" y="522"/>
      <point x="1446" y="847" type="curve" smooth="yes"/>
      <point x="1446" y="1269"/>
      <point x="1221" y="1483"/>
      <point x="932" y="1483" type="curve" smooth="yes"/>
      <point x="629" y="1483"/>
      <point x="399" y="1256"/>
      <point x="399" y="816" type="curve" smooth="yes"/>
      <point x="399" y="494"/>
      <point x="610" y="231"/>
      <point x="791" y="126" type="curve"/>
      <point x="791" y="0" type="line"/>
    </contour>
  </outline>
</glyph>
<glyph name="pi" format="1">
  <advance width="1592"/>
  <unicode hex="03C0"/>
  <outline>
    <contour>
      <point x="204" y="81" type="line"/>
      <point x="227" y="86"/>
      <point x="286" y="106"/>
      <point x="336" y="141" type="curve" smooth="yes"/>
      <point x="432" y="208"/>
      <point x="466" y="301"/>
      <point x="475" y="445" type="curve"/>
      <point x="480" y="507"/>
      <point x="495" y="830"/>
      <point x="500" y="971" type="curve"/>
      <point x="425" y="971" type="line"/>
      <point x="342" y="972"/>
      <point x="264" y="928"/>
      <point x="236" y="862" type="curve"/>
      <point x="152" y="872" type="line"/>
      <point x="155" y="895"/>
      <point x="162" y="934"/>
      <point x="182" y="965" type="curve"/>
      <point x="240" y="1062"/>
      <point x="338" y="1117"/>
      <point x="462" y="1117" type="curve" smooth="yes"/>
      <point x="1131" y="1115" type="line" smooth="yes"/>
      <point x="1231" y="1115"/>
      <point x="1299" y="1151"/>
      <point x="1337" y="1228" type="curve"/>
      <point x="1418" y="1228" type="line"/>
      <point x="1400" y="1072"/>
      <point x="1276" y="969"/>
      <point x="1106" y="969" type="curve" smooth="yes"/>
      <point x="1104" y="969" type="line"/>
      <point x="1093" y="750"/>
      <point x="1073" y="333"/>
      <point x="1070" y="259" type="curve"/>
      <point x="1069" y="177"/>
      <point x="1086" y="121"/>
      <point x="1119" y="121" type="curve" smooth="yes"/>
      <point x="1177" y="121"/>
      <point x="1241" y="164"/>
      <point x="1268" y="221" type="curve"/>
      <point x="1354" y="221" type="line"/>
      <point x="1332" y="135"/>
      <point x="1220" y="-21"/>
      <point x="1080" y="-21" type="curve" smooth="yes"/>
      <point x="965" y="-21"/>
      <point x="960" y="113"/>
      <point x="967" y="249" type="curve"/>
      <point x="969" y="332"/>
      <point x="999" y="781"/>
      <point x="1011" y="969" type="curve"/>
      <point x="595" y="970" type="line"/>
      <point x="588" y="795"/>
      <point x="574" y="467"/>
      <point x="571" y="409" type="curve"/>
      <point x="556" y="209"/>
      <point x="528" y="125"/>
      <point x="438" y="43" type="curve" smooth="yes"/>
      <point x="404" y="11"/>
      <point x="361" y="-9"/>
      <point x="314" y="-23" type="curve"/>
    </contour>
  </outline>
</glyph>
<glyph name="quoteleft" format="1">
  <advance width="774"/>
  <unicode hex="2018"/>
  <outline>
    <contour>
      <point x="417" y="953" type="line"/>
      <point x="272" y="988"/>
      <point x="211" y="1146"/>
      <point x="210" y="1261" type="curve" smooth="yes"/>
      <point x="208" y="1487"/>
      <point x="374" y="1648"/>
      <point x="518" y="1707" type="curve"/>
      <point x="554" y="1664" type="line"/>
      <point x="554" y="1639" type="line"/>
      <point x="460" y="1607"/>
      <point x="350" y="1472"/>
      <point x="350" y="1320" type="curve" smooth="yes"/>
      <point x="350" y="1198"/>
      <point x="423" y="1105"/>
      <point x="497" y="1094" type="curve"/>
      <point x="497" y="1058" type="line"/>
    </contour>
  </outline>
</glyph>
<glyph name="quoteright" format="1">
  <advance width="774"/>
  <unicode hex="2019"/>
  <outline>
    <contour>
      <point x="214" y="965" type="curve"/>
      <point x="179" y="1009" type="line"/>
      <point x="179" y="1034" type="line"/>
      <point x="272" y="1066"/>
      <point x="382" y="1201"/>
      <point x="382" y="1353" type="curve" smooth="yes"/>
      <point x="382" y="1475"/>
      <point x="310" y="1567"/>
      <point x="235" y="1578" type="curve"/>
      <point x="235" y="1615" type="line"/>
      <point x="315" y="1719" type="line"/>
      <point x="460" y="1685"/>
      <point x="521" y="1526"/>
      <point x="522" y="1411" type="curve" smooth="yes"/>
      <point x="525" y="1186"/>
      <point x="358" y="1024"/>
    </contour>
  </outline>
</glyph>
<glyph name="quotesinglbase" format="1">
  <advance width="752"/>
  <unicode hex="201A"/>
  <outline>
    <contour>
      <point x="235" y="80" type="curve"/>
      <point x="235" y="116" type="line"/>
      <point x="315" y="221" type="line"/>
      <point x="460" y="186"/>
      <point x="521" y="28"/>
      <point x="522" y="-87" type="curve" smooth="yes"/>
      <point x="525" y="-313"/>
      <point x="358" y="-474"/>
      <point x="214" y="-533" type="curve"/>
      <point x="179" y="-490" type="line"/>
      <point x="179" y="-465" type="line"/>
      <point x="272" y="-433"/>
      <point x="382" y="-298"/>
      <point x="382" y="-146" type="curve" smooth="yes"/>
      <point x="382" y="-24"/>
      <point x="310" y="69"/>
    </contour>
  </outline>
</glyph>
<glyph name="quotedblright" format="1">
  <advance width="1325"/>
  <unicode hex="201D"/>
  <outline>
    <contour>
      <point x="806" y="965" type="curve"/>
      <point x="771" y="1009" type="line"/>
      <point x="771" y="1034" type="line"/>
      <point x="865" y="1066"/>
      <point x="975" y="1201"/>
      <point x="975" y="1353" type="curve" smooth="yes"/>
      <point x="975" y="1475"/>
      <point x="902" y="1567"/>
      <point x="827" y="1578" type="curve"/>
      <point x="827" y="1615" type="line"/>
      <point x="908" y="1719" type="line"/>
      <point x="1053" y="1685"/>
      <point x="1114" y="1526"/>
      <point x="1115" y="1411" type="curve" smooth="yes"/>
      <point x="1117" y="1186"/>
      <point x="951" y="1024"/>
    </contour>
    <contour>
      <point x="256" y="965" type="curve"/>
      <point x="220" y="1009" type="line"/>
      <point x="220" y="1034" type="line"/>
      <point x="314" y="1066"/>
      <point x="424" y="1201"/>
      <point x="424" y="1353" type="curve" smooth="yes"/>
      <point x="424" y="1475"/>
      <point x="351" y="1567"/>
      <point x="277" y="1578" type="curve"/>
      <point x="277" y="1615" type="line"/>
      <point x="357" y="1719" type="line"/>
      <point x="502" y="1685"/>
      <point x="563" y="1526"/>
      <point x="564" y="1411" type="curve" smooth="yes"/>
      <point x="566" y="1186"/>
      <point x="400" y="1024"/>
    </contour>
  </outline>
</glyph>
<glyph name="quotedblbase" format="1">
  <advance width="1308"/>
  <unicode hex="201E"/>
  <outline>
    <contour>
      <point x="856" y="83" type="curve"/>
      <point x="856" y="120" type="line"/>
      <point x="937" y="224" type="line"/>
      <point x="1082" y="189"/>
      <point x="1143" y="31"/>
      <point x="1144" y="-84" type="curve" smooth="yes"/>
      <point x="1146" y="-309"/>
      <point x="980" y="-471"/>
      <point x="835" y="-530" type="curve"/>
      <point x="800" y="-486" type="line"/>
      <point x="800" y="-462" type="line"/>
      <point x="894" y="-429"/>
      <point x="1004" y="-294"/>
      <point x="1004" y="-143" type="curve" smooth="yes"/>
      <point x="1004" y="-21"/>
      <point x="931" y="72"/>
    </contour>
    <contour>
      <point x="306" y="83" type="curve"/>
      <point x="306" y="120" type="line"/>
      <point x="386" y="224" type="line"/>
      <point x="531" y="189"/>
      <point x="592" y="31"/>
      <point x="593" y="-84" type="curve" smooth="yes"/>
      <point x="596" y="-309"/>
      <point x="429" y="-471"/>
      <point x="285" y="-530" type="curve"/>
      <point x="249" y="-486" type="line"/>
      <point x="249" y="-462" type="line"/>
      <point x="343" y="-429"/>
      <point x="453" y="-294"/>
      <point x="453" y="-143" type="curve" smooth="yes"/>
      <point x="453" y="-21"/>
      <point x="380" y="72"/>
    </contour>
  </outline>
</glyph>
<glyph name="dagger" format="1">
  <advance width="923"/>
  <unicode hex="2020"/>
  <outline>
    <contour>
      <point x="424" y="283" type="line"/>
      <point x="394" y="1001" type="line"/>
      <point x="399" y="1153" type="line"/>
      <point x="92" y="1148" type="line"/>
      <point x="93" y="1262" type="line"/>
      <point x="410" y="1257" type="line"/>
      <point x="394" y="1479" type="line"/>
      <point x="390" y="1648" type="line"/>
      <point x="532" y="1648" type="line"/>
      <point x="528" y="1479" type="line"/>
      <point x="512" y="1257" type="line"/>
      <point x="830" y="1262" type="line"/>
      <point x="830" y="1148" type="line"/>
      <point x="524" y="1153" type="line"/>
      <point x="528" y="1001" type="line"/>
      <point x="499" y="283" type="line"/>
    </contour>
  </outline>
</glyph>
<glyph name="daggerdbl" format="1">
  <advance width="923"/>
  <unicode hex="2021"/>
  <outline>
    <contour>
      <point x="393" y="352" type="line"/>
      <point x="399" y="538" type="line"/>
      <point x="92" y="533" type="line"/>
      <point x="92" y="645" type="line"/>
      <point x="410" y="641" type="line"/>
      <point x="394" y="999" type="line"/>
      <point x="399" y="1153" type="line"/>
      <point x="92" y="1148" type="line"/>
      <point x="92" y="1262" type="line"/>
      <point x="410" y="1257" type="line"/>
      <point x="394" y="1479" type="line"/>
      <point x="390" y="1648" type="line"/>
      <point x="532" y="1648" type="line"/>
      <point x="528" y="1479" type="line"/>
      <point x="512" y="1257" type="line"/>
      <point x="830" y="1262" type="line"/>
      <point x="830" y="1148" type="line"/>
      <point x="523" y="1153" type="line"/>
      <point x="529" y="999" type="line"/>
      <point x="512" y="641" type="line"/>
      <point x="830" y="645" type="line"/>
      <point x="830" y="533" type="line"/>
      <point x="523" y="538" type="line"/>
      <point x="529" y="352" type="line"/>
      <point x="497" y="-366" type="line"/>
      <point x="426" y="-366" type="line"/>
    </contour>
  </outline>
</glyph>
<glyph name="bullet" format="1">
  <advance width="841"/>
  <unicode hex="2022"/>
  <outline>
    <contour>
      <point x="413" y="570" type="curve" smooth="yes"/>
      <point x="325" y="570"/>
      <point x="252" y="650"/>
      <point x="258" y="740" type="curve" smooth="yes"/>
      <point x="265" y="835"/>
      <point x="341" y="910"/>
      <point x="428" y="910" type="curve" smooth="yes"/>
      <point x="515" y="910"/>
      <point x="589" y="835"/>
      <point x="583" y="740" type="curve"/>
      <point x="576" y="646"/>
      <point x="500" y="570"/>
    </contour>
  </outline>
</glyph>
<glyph name="ellipsis" format="1">
  <advance width="2119"/>
  <unicode hex="2026"/>
  <outline>
    <contour>
      <point x="1628" y="73" type="curve" smooth="yes"/>
      <point x="1628" y="136"/>
      <point x="1689" y="185"/>
      <point x="1745" y="185" type="curve" smooth="yes"/>
      <point x="1813" y="185"/>
      <point x="1844" y="141"/>
      <point x="1844" y="90" type="curve" smooth="yes"/>
      <point x="1844" y="23"/>
      <point x="1786" y="-22"/>
      <point x="1727" y="-22" type="curve" smooth="yes"/>
      <point x="1676" y="-22"/>
      <point x="1628" y="15"/>
    </contour>
    <contour>
      <point x="921" y="73" type="curve" smooth="yes"/>
      <point x="921" y="136"/>
      <point x="982" y="185"/>
      <point x="1039" y="185" type="curve" smooth="yes"/>
      <point x="1107" y="185"/>
      <point x="1138" y="141"/>
      <point x="1138" y="90" type="curve" smooth="yes"/>
      <point x="1138" y="23"/>
      <point x="1079" y="-22"/>
      <point x="1020" y="-22" type="curve" smooth="yes"/>
      <point x="969" y="-22"/>
      <point x="921" y="15"/>
    </contour>
    <contour>
      <point x="215" y="73" type="curve" smooth="yes"/>
      <point x="215" y="136"/>
      <point x="276" y="185"/>
      <point x="332" y="185" type="curve" smooth="yes"/>
      <point x="401" y="185"/>
      <point x="432" y="141"/>
      <point x="432" y="90" type="curve" smooth="yes"/>
      <point x="432" y="23"/>
      <point x="373" y="-22"/>
      <point x="314" y="-22" type="curve" smooth="yes"/>
      <point x="263" y="-22"/>
      <point x="215" y="15"/>
    </contour>
  </outline>
</glyph>
<glyph name="guilsinglleft" format="1">
  <advance width="1189"/>
  <unicode hex="2039"/>
  <outline>
    <contour>
      <point x="245" y="550" type="line"/>
      <point x="245" y="676" type="line"/>
      <point x="893" y="1075" type="line"/>
      <point x="934" y="1008" type="line"/>
      <point x="384" y="616" type="line"/>
      <point x="934" y="234" type="line"/>
      <point x="893" y="163" type="line"/>
    </contour>
  </outline>
</glyph>
<glyph name="guilsinglright" format="1">
  <advance width="1189"/>
  <unicode hex="203A"/>
  <outline>
    <contour>
      <point x="296" y="163" type="line"/>
      <point x="256" y="230" type="line"/>
      <point x="805" y="621" type="line"/>
      <point x="256" y="1004" type="line"/>
      <point x="296" y="1075" type="line"/>
      <point x="944" y="688" type="line"/>
      <point x="944" y="562" type="line"/>
    </contour>
  </outline>
</glyph>
<glyph name="fraction" format="1">
  <advance width="885"/>
  <unicode hex="2044"/>
  <outline>
    <contour>
      <point x="-10" y="-322" type="line"/>
      <point x="718" y="1881" type="line"/>
      <point x="818" y="1856" type="line"/>
      <point x="93" y="-343" type="line"/>
    </contour>
  </outline>
</glyph>
<glyph name="Euro" format="1">
  <advance width="1390"/>
  <unicode hex="20AC"/>
  <outline>
    <contour>
      <point x="-39" y="569" type="line"/>
      <point x="-39" y="665" type="line"/>
      <point x="157" y="665" type="line"/>
      <point x="156" y="684"/>
      <point x="156" y="704"/>
      <point x="156" y="724" type="curve" smooth="yes"/>
      <point x="156" y="794"/>
      <point x="161" y="861"/>
      <point x="171" y="924" type="curve"/>
      <point x="-9" y="924" type="line"/>
      <point x="-9" y="1021" type="line"/>
      <point x="191" y="1021" type="line"/>
      <point x="281" y="1367"/>
      <point x="532" y="1563"/>
      <point x="859" y="1563" type="curve" smooth="yes"/>
      <point x="1047" y="1563"/>
      <point x="1183" y="1515"/>
      <point x="1268" y="1490" type="curve"/>
      <point x="1254" y="1229" type="line"/>
      <point x="1187" y="1229" type="line"/>
      <point x="1149" y="1396" type="line"/>
      <point x="1080" y="1448"/>
      <point x="949" y="1474"/>
      <point x="814" y="1474" type="curve" smooth="yes"/>
      <point x="576" y="1474"/>
      <point x="394" y="1320"/>
      <point x="331" y="1021" type="curve"/>
      <point x="949" y="1021" type="line"/>
      <point x="949" y="924" type="line"/>
      <point x="316" y="924" type="line"/>
      <point x="311" y="876"/>
      <point x="308" y="826"/>
      <point x="308" y="772" type="curve" smooth="yes"/>
      <point x="308" y="735"/>
      <point x="309" y="700"/>
      <point x="311" y="665" type="curve"/>
      <point x="919" y="665" type="line"/>
      <point x="919" y="569" type="line"/>
      <point x="321" y="569" type="line"/>
      <point x="363" y="269"/>
      <point x="509" y="50"/>
      <point x="814" y="54" type="curve"/>
      <point x="972" y="55"/>
      <point x="1086" y="85"/>
      <point x="1163" y="152" type="curve"/>
      <point x="1173" y="191"/>
      <point x="1188" y="283"/>
      <point x="1199" y="322" type="curve"/>
      <point x="1219" y="322"/>
      <point x="1250" y="321"/>
      <point x="1270" y="321" type="curve"/>
      <point x="1270" y="63" type="line"/>
      <point x="1177" y="49"/>
      <point x="1048" y="-28"/>
      <point x="768" y="-28" type="curve" smooth="yes"/>
      <point x="421" y="-28"/>
      <point x="211" y="210"/>
      <point x="165" y="569" type="curve"/>
    </contour>
  </outline>
</glyph>
<glyph name="trademark" format="1">
  <advance width="2180"/>
  <unicode hex="2122"/>
  <outline>
    <contour>
      <point x="964" y="777" type="line"/>
      <point x="964" y="838" type="line"/>
      <point x="1075" y="853" type="line"/>
      <point x="1108" y="1477" type="line"/>
      <point x="998" y="1486" type="line"/>
      <point x="998" y="1553" type="line"/>
      <point x="1299" y="1553" type="line"/>
      <point x="1487" y="1048" type="line"/>
      <point x="1522" y="924" type="line"/>
      <point x="1730" y="1553" type="line"/>
      <point x="1998" y="1553" type="line"/>
      <point x="1998" y="1486" type="line"/>
      <point x="1894" y="1477" type="line"/>
      <point x="1950" y="852" type="line"/>
      <point x="2050" y="838" type="line"/>
      <point x="2050" y="777" type="line"/>
      <point x="1731" y="777" type="line"/>
      <point x="1731" y="838" type="line"/>
      <point x="1827" y="852" type="line"/>
      <point x="1796" y="1263" type="line"/>
      <point x="1787" y="1480" type="line"/>
      <point x="1757" y="1383" type="line"/>
      <point x="1547" y="769" type="line"/>
      <point x="1462" y="769" type="line"/>
      <point x="1244" y="1331" type="line"/>
      <point x="1187" y="1482" type="line"/>
      <point x="1181" y="1309" type="line"/>
      <point x="1161" y="853" type="line"/>
      <point x="1264" y="838" type="line"/>
      <point x="1264" y="777" type="line"/>
    </contour>
    <contour>
      <point x="319" y="777" type="line"/>
      <point x="319" y="838" type="line"/>
      <point x="450" y="852" type="line"/>
      <point x="450" y="1478" type="line"/>
      <point x="258" y="1468" type="line"/>
      <point x="220" y="1323" type="line"/>
      <point x="167" y="1322" type="line"/>
      <point x="184" y="1553" type="line"/>
      <point x="860" y="1553" type="line"/>
      <point x="860" y="1323" type="line"/>
      <point x="809" y="1318" type="line"/>
      <point x="784" y="1470" type="line"/>
      <point x="585" y="1480" type="line"/>
      <point x="585" y="852" type="line"/>
      <point x="727" y="838" type="line"/>
      <point x="727" y="777" type="line"/>
    </contour>
  </outline>
</glyph>
<glyph name="partialdiff" format="1">
  <advance width="1241"/>
  <unicode hex="2202"/>
  <outline>
    <contour>
      <point x="63" y="408" type="curve" smooth="yes"/>
      <point x="63" y="755"/>
      <point x="376" y="1000"/>
      <point x="718" y="1000" type="curve" smooth="yes"/>
      <point x="820" y="1000"/>
      <point x="909" y="983"/>
      <point x="995" y="941" type="curve"/>
      <point x="985" y="1288"/>
      <point x="887" y="1593"/>
      <point x="499" y="1593" type="curve" smooth="yes"/>
      <point x="392" y="1593"/>
      <point x="273" y="1564"/>
      <point x="172" y="1501" type="curve"/>
      <point x="129" y="1567" type="line"/>
      <point x="243" y="1643"/>
      <point x="410" y="1688"/>
      <point x="555" y="1688" type="curve" smooth="yes"/>
      <point x="1005" y="1688"/>
      <point x="1133" y="1335"/>
      <point x="1133" y="929" type="curve" smooth="yes"/>
      <point x="1133" y="487"/>
      <point x="988" y="-24"/>
      <point x="514" y="-24" type="curve" smooth="yes"/>
      <point x="256" y="-24"/>
      <point x="63" y="160"/>
    </contour>
    <contour>
      <point x="205" y="449" type="curve" smooth="yes"/>
      <point x="205" y="236"/>
      <point x="362" y="69"/>
      <point x="567" y="69" type="curve" smooth="yes"/>
      <point x="858" y="69"/>
      <point x="964" y="378"/>
      <point x="986" y="650" type="curve" smooth="yes"/>
      <point x="991" y="704"/>
      <point x="994" y="754"/>
      <point x="995" y="802" type="curve"/>
      <point x="901" y="872"/>
      <point x="788" y="905"/>
      <point x="667" y="905" type="curve" smooth="yes"/>
      <point x="423" y="905"/>
      <point x="205" y="743"/>
    </contour>
  </outline>
</glyph>
<glyph name="summation" format="1">
  <advance width="1592"/>
  <unicode hex="2211"/>
  <outline>
    <contour>
      <point x="208" y="-147" type="line"/>
      <point x="769" y="684" type="line"/>
      <point x="208" y="1485" type="line"/>
      <point x="218" y="1553" type="line"/>
      <point x="1284" y="1553" type="line"/>
      <point x="1316" y="1241" type="line"/>
      <point x="1235" y="1241" type="line"/>
      <point x="1183" y="1460" type="line"/>
      <point x="371" y="1472" type="line"/>
      <point x="922" y="706" type="line"/>
      <point x="365" y="-101" type="line"/>
      <point x="1191" y="-78" type="line"/>
      <point x="1278" y="157" type="line"/>
      <point x="1352" y="139" type="line"/>
      <point x="1309" y="-180" type="line"/>
      <point x="224" y="-179" type="line"/>
    </contour>
  </outline>
</glyph>
<glyph name="infinity" format="1">
  <advance width="1770"/>
  <unicode hex="221E"/>
  <outline>
    <contour>
      <point x="475" y="259" type="curve" smooth="yes"/>
      <point x="250" y="257"/>
      <point x="115" y="415"/>
      <point x="115" y="600" type="curve" smooth="yes"/>
      <point x="115" y="816"/>
      <point x="289" y="975"/>
      <point x="482" y="975" type="curve" smooth="yes"/>
      <point x="655" y="975"/>
      <point x="781" y="835"/>
      <point x="894" y="701" type="curve"/>
      <point x="1006" y="840"/>
      <point x="1125" y="973"/>
      <point x="1287" y="975" type="curve" smooth="yes"/>
      <point x="1512" y="977"/>
      <point x="1633" y="819"/>
      <point x="1633" y="634" type="curve" smooth="yes"/>
      <point x="1633" y="420"/>
      <point x="1460" y="259"/>
      <point x="1267" y="259" type="curve" smooth="yes"/>
      <point x="1092" y="259"/>
      <point x="966" y="399"/>
      <point x="853" y="533" type="curve"/>
      <point x="743" y="394"/>
      <point x="638" y="261"/>
    </contour>
    <contour>
      <point x="491" y="350" type="curve" smooth="yes"/>
      <point x="615" y="350"/>
      <point x="717" y="472"/>
      <point x="809" y="593" type="curve"/>
      <point x="710" y="717"/>
      <point x="598" y="881"/>
      <point x="459" y="881" type="curve" smooth="yes"/>
      <point x="326" y="881"/>
      <point x="249" y="777"/>
      <point x="249" y="630" type="curve" smooth="yes"/>
      <point x="249" y="474"/>
      <point x="354" y="350"/>
    </contour>
    <contour>
      <point x="938" y="642" type="curve"/>
      <point x="1038" y="515"/>
      <point x="1166" y="346"/>
      <point x="1303" y="346" type="curve" smooth="yes"/>
      <point x="1436" y="346"/>
      <point x="1500" y="459"/>
      <point x="1500" y="604" type="curve" smooth="yes"/>
      <point x="1500" y="757"/>
      <point x="1408" y="877"/>
      <point x="1271" y="877" type="curve" smooth="yes"/>
      <point x="1147" y="877"/>
      <point x="1032" y="759"/>
    </contour>
  </outline>
</glyph>
<glyph name="approxequal" format="1">
  <advance width="1275"/>
  <unicode hex="2248"/>
  <outline>
    <contour>
      <point x="209" y="911" type="curve"/>
      <point x="153" y="980" type="line"/>
      <point x="212" y="1072"/>
      <point x="330" y="1161"/>
      <point x="477" y="1161" type="curve" smooth="yes"/>
      <point x="631" y="1161"/>
      <point x="697" y="977"/>
      <point x="821" y="977" type="curve" smooth="yes"/>
      <point x="925" y="977"/>
      <point x="994" y="1042"/>
      <point x="1046" y="1095" type="curve"/>
      <point x="1101" y="1027" type="line"/>
      <point x="1043" y="934"/>
      <point x="925" y="845"/>
      <point x="778" y="845" type="curve" smooth="yes"/>
      <point x="623" y="845"/>
      <point x="559" y="1030"/>
      <point x="434" y="1030" type="curve" smooth="yes"/>
      <point x="329" y="1030"/>
      <point x="261" y="964"/>
    </contour>
    <contour>
      <point x="223" y="521" type="curve"/>
      <point x="167" y="590" type="line"/>
      <point x="226" y="682"/>
      <point x="344" y="771"/>
      <point x="491" y="771" type="curve" smooth="yes"/>
      <point x="645" y="771"/>
      <point x="711" y="587"/>
      <point x="835" y="587" type="curve" smooth="yes"/>
      <point x="939" y="587"/>
      <point x="1008" y="652"/>
      <point x="1060" y="705" type="curve"/>
      <point x="1115" y="637" type="line"/>
      <point x="1057" y="544"/>
      <point x="939" y="455"/>
      <point x="792" y="455" type="curve" smooth="yes"/>
      <point x="637" y="455"/>
      <point x="573" y="640"/>
      <point x="448" y="640" type="curve" smooth="yes"/>
      <point x="343" y="640"/>
      <point x="275" y="574"/>
    </contour>
  </outline>
</glyph>
<glyph name="lessequal" format="1">
  <advance width="1312"/>
  <unicode hex="2264"/>
  <outline>
    <contour>
      <point x="172" y="945" type="line"/>
      <point x="172" y="1012" type="line"/>
      <point x="1140" y="1443" type="line"/>
      <point x="1140" y="1313" type="line"/>
      <point x="349" y="977" type="line"/>
      <point x="1140" y="638" type="line"/>
      <point x="1140" y="508" type="line"/>
    </contour>
    <contour>
      <point x="172" y="177" type="line"/>
      <point x="172" y="288" type="line"/>
      <point x="1140" y="288" type="line"/>
      <point x="1140" y="177" type="line"/>
    </contour>
  </outline>
</glyph>
<glyph name="ff" format="1">
  <advance width="1675"/>
  <unicode hex="FB00"/>
  <outline>
    <contour>
      <point x="956" y="0" type="line"/>
      <point x="956" y="68" type="line"/>
      <point x="1160" y="85" type="line"/>
      <point x="1160" y="996" type="line"/>
      <point x="935" y="996" type="line"/>
      <point x="935" y="1056" type="line"/>
      <point x="1160" y="1100" type="line"/>
      <point x="1160" y="1205" type="line" smooth="yes"/>
      <point x="1160" y="1503"/>
      <point x="1383" y="1682"/>
      <point x="1558" y="1682" type="curve" smooth="yes"/>
      <point x="1639" y="1682"/>
      <point x="1675" y="1675"/>
      <point x="1701" y="1665" type="curve"/>
      <point x="1701" y="1536" type="line"/>
      <point x="1678" y="1550"/>
      <point x="1618" y="1565"/>
      <point x="1529" y="1565" type="curve" smooth="yes"/>
      <point x="1417" y="1565"/>
      <point x="1305" y="1518"/>
      <point x="1305" y="1261" type="curve" smooth="yes"/>
      <point x="1305" y="1100" type="line"/>
      <point x="1633" y="1100" type="line"/>
      <point x="1633" y="996" type="line"/>
      <point x="1305" y="996" type="line"/>
      <point x="1305" y="84" type="line"/>
      <point x="1547" y="68" type="line"/>
      <point x="1547" y="0" type="line"/>
    </contour>
    <contour>
      <point x="119" y="0" type="line"/>
      <point x="119" y="68" type="line"/>
      <point x="323" y="85" type="line"/>
      <point x="323" y="996" type="line"/>
      <point x="97" y="996" type="line"/>
      <point x="97" y="1056" type="line"/>
      <point x="323" y="1100" type="line"/>
      <point x="323" y="1205" type="line" smooth="yes"/>
      <point x="323" y="1503"/>
      <point x="545" y="1682"/>
      <point x="721" y="1682" type="curve" smooth="yes"/>
      <point x="802" y="1682"/>
      <point x="838" y="1675"/>
      <point x="864" y="1665" type="curve"/>
      <point x="864" y="1536" type="line"/>
      <point x="840" y="1550"/>
      <point x="781" y="1565"/>
      <point x="692" y="1565" type="curve" smooth="yes"/>
      <point x="580" y="1565"/>
      <point x="468" y="1518"/>
      <point x="468" y="1261" type="curve" smooth="yes"/>
      <point x="468" y="1100" type="line"/>
      <point x="795" y="1100" type="line"/>
      <point x="795" y="996" type="line"/>
      <point x="468" y="996" type="line"/>
      <point x="468" y="84" type="line"/>
      <point x="709" y="68" type="line"/>
      <point x="709" y="0" type="line"/>
    </contour>
  </outline>
</glyph>
<glyph name="fi" format="1">
  <advance width="1520"/>
  <unicode hex="FB01"/>
  <outline>
    <contour>
      <point x="119" y="0" type="line"/>
      <point x="119" y="68" type="line"/>
      <point x="323" y="85" type="line"/>
      <point x="323" y="996" type="line"/>
      <point x="97" y="996" type="line"/>
      <point x="97" y="1056" type="line"/>
      <point x="323" y="1100" type="line"/>
      <point x="323" y="1205" type="line" smooth="yes"/>
      <point x="323" y="1503"/>
      <point x="545" y="1682"/>
      <point x="721" y="1682" type="curve" smooth="yes"/>
      <point x="802" y="1682"/>
      <point x="838" y="1675"/>
      <point x="864" y="1665" type="curve"/>
      <point x="864" y="1536" type="line"/>
      <point x="840" y="1550"/>
      <point x="781" y="1565"/>
      <point x="692" y="1565" type="curve" smooth="yes"/>
      <point x="580" y="1565"/>
      <point x="468" y="1518"/>
      <point x="468" y="1261" type="curve" smooth="yes"/>
      <point x="468" y="1100" type="line"/>
      <point x="795" y="1100" type="line"/>
      <point x="795" y="996" type="line"/>
      <point x="468" y="996" type="line"/>
      <point x="468" y="84" type="line"/>
      <point x="709" y="68" type="line"/>
      <point x="709" y="0" type="line"/>
    </contour>
    <contour>
      <point x="1178" y="1415" type="curve" smooth="yes"/>
      <point x="1126" y="1415"/>
      <point x="1078" y="1452"/>
      <point x="1078" y="1512" type="curve" smooth="yes"/>
      <point x="1078" y="1578"/>
      <point x="1140" y="1627"/>
      <point x="1196" y="1627" type="curve" smooth="yes"/>
      <point x="1265" y="1627"/>
      <point x="1296" y="1583"/>
      <point x="1296" y="1529" type="curve" smooth="yes"/>
      <point x="1296" y="1460"/>
      <point x="1237" y="1415"/>
    </contour>
    <contour>
      <point x="978" y="0" type="line"/>
      <point x="978" y="68" type="line"/>
      <point x="1143" y="84" type="line"/>
      <point x="1143" y="971" type="line"/>
      <point x="999" y="1021" type="line"/>
      <point x="999" y="1072" type="line"/>
      <point x="1243" y="1133" type="line"/>
      <point x="1281" y="1114" type="line"/>
      <point x="1281" y="85" type="line"/>
      <point x="1448" y="68" type="line"/>
      <point x="1448" y="0" type="line"/>
    </contour>
  </outline>
</glyph>
<glyph name="fl" format="1">
  <advance width="1535"/>
  <unicode hex="FB02"/>
  <outline>
    <contour>
      <point x="119" y="0" type="line"/>
      <point x="119" y="68" type="line"/>
      <point x="323" y="85" type="line"/>
      <point x="323" y="996" type="line"/>
      <point x="97" y="996" type="line"/>
      <point x="97" y="1056" type="line"/>
      <point x="323" y="1100" type="line"/>
      <point x="323" y="1205" type="line" smooth="yes"/>
      <point x="323" y="1503"/>
      <point x="545" y="1682"/>
      <point x="721" y="1682" type="curve" smooth="yes"/>
      <point x="802" y="1682"/>
      <point x="838" y="1675"/>
      <point x="864" y="1665" type="curve"/>
      <point x="864" y="1536" type="line"/>
      <point x="840" y="1550"/>
      <point x="781" y="1565"/>
      <point x="692" y="1565" type="curve" smooth="yes"/>
      <point x="580" y="1565"/>
      <point x="468" y="1518"/>
      <point x="468" y="1261" type="curve" smooth="yes"/>
      <point x="468" y="1100" type="line"/>
      <point x="795" y="1100" type="line"/>
      <point x="795" y="996" type="line"/>
      <point x="468" y="996" type="line"/>
      <point x="468" y="84" type="line"/>
      <point x="709" y="68" type="line"/>
      <point x="709" y="0" type="line"/>
    </contour>
    <contour>
      <point x="974" y="0" type="line"/>
      <point x="974" y="68" type="line"/>
      <point x="1141" y="85" type="line"/>
      <point x="1141" y="1496" type="line"/>
      <point x="978" y="1520" type="line"/>
      <point x="978" y="1589" type="line"/>
      <point x="1251" y="1623" type="line"/>
      <point x="1286" y="1602" type="line"/>
      <point x="1286" y="84" type="line"/>
      <point x="1461" y="68" type="line"/>
      <point x="1461" y="0" type="line"/>
    </contour>
  </outline>
</glyph>
<glyph name="caron.cap" format="1">
  <advance width="708"/>
  <outline>
    <contour>
      <point x="407" y="1631" type="line"/>
      <point x="145" y="1879" type="line"/>
      <point x="211" y="1920" type="line"/>
      <point x="477" y="1736" type="line"/>
      <point x="747" y="1920" type="line"/>
      <point x="806" y="1881" type="line"/>
      <point x="547" y="1631" type="line"/>
    </contour>
  </outline>
</glyph>
<glyph name="circumflex.cap" format="1">
  <advance width="1062"/>
  <outline>
    <contour>
      <point x="253" y="1617" type="line"/>
      <point x="191" y="1654" type="line"/>
      <point x="460" y="1920" type="line"/>
      <point x="606" y="1920" type="line"/>
      <point x="875" y="1656" type="line"/>
      <point x="805" y="1617" type="line"/>
      <point x="532" y="1817" type="line"/>
    </contour>
  </outline>
</glyph>
<glyph name="commabelow" format="1">
  <advance width="707"/>
  <outline>
    <contour>
      <point x="277" y="-149" type="line"/>
      <point x="350" y="-74" type="line"/>
      <point x="479" y="-98"/>
      <point x="548" y="-207"/>
      <point x="550" y="-302" type="curve" smooth="yes"/>
      <point x="552" y="-470"/>
      <point x="416" y="-604"/>
      <point x="317" y="-640" type="curve"/>
      <point x="276" y="-603" type="line"/>
      <point x="276" y="-576" type="line"/>
      <point x="355" y="-542"/>
      <point x="397" y="-434"/>
      <point x="397" y="-333" type="curve" smooth="yes"/>
      <point x="397" y="-246"/>
      <point x="325" y="-192"/>
      <point x="277" y="-192" type="curve"/>
    </contour>
  </outline>
</glyph>
<glyph name="grave.cap" format="1">
  <advance width="1062"/>
  <outline>
    <contour>
      <point x="505" y="1608" type="line"/>
      <point x="384" y="1657"/>
      <point x="239" y="1736"/>
      <point x="145" y="1811" type="curve"/>
      <point x="252" y="1920" type="line"/>
      <point x="547" y="1651" type="line"/>
    </contour>
  </outline>
</glyph>
<glyph name="ring.cap" format="1">
  <advance width="708"/>
  <outline>
    <contour>
      <point x="354" y="1479" type="curve" smooth="yes"/>
      <point x="216" y="1479"/>
      <point x="102" y="1572"/>
      <point x="102" y="1700" type="curve" smooth="yes"/>
      <point x="102" y="1827"/>
      <point x="216" y="1920"/>
      <point x="354" y="1920" type="curve" smooth="yes"/>
      <point x="492" y="1920"/>
      <point x="606" y="1828"/>
      <point x="606" y="1700" type="curve" smooth="yes"/>
      <point x="606" y="1573"/>
      <point x="492" y="1479"/>
    </contour>
    <contour>
      <point x="354" y="1562" type="curve" smooth="yes"/>
      <point x="440" y="1562"/>
      <point x="512" y="1617"/>
      <point x="512" y="1698" type="curve" smooth="yes"/>
      <point x="512" y="1778"/>
      <point x="440" y="1834"/>
      <point x="354" y="1834" type="curve" smooth="yes"/>
      <point x="267" y="1834"/>
      <point x="196" y="1778"/>
      <point x="196" y="1699" type="curve" smooth="yes"/>
      <point x="196" y="1617"/>
      <point x="267" y="1562"/>
    </contour>
  </outline>
</glyph>
<glyph name="tilde.cap" format="1">
  <advance width="1063"/>
  <outline>
    <contour>
      <point x="179" y="1701" type="curve"/>
      <point x="137" y="1760" type="line"/>
      <point x="189" y="1848"/>
      <point x="294" y="1920"/>
      <point x="402" y="1920" type="curve" smooth="yes"/>
      <point x="531" y="1920"/>
      <point x="578" y="1775"/>
      <point x="680" y="1775" type="curve" smooth="yes"/>
      <point x="763" y="1775"/>
      <point x="826" y="1822"/>
      <point x="871" y="1873" type="curve"/>
      <point x="913" y="1813" type="line"/>
      <point x="862" y="1727"/>
      <point x="758" y="1653"/>
      <point x="650" y="1653" type="curve" smooth="yes"/>
      <point x="521" y="1653"/>
      <point x="474" y="1800"/>
      <point x="371" y="1800" type="curve" smooth="yes"/>
      <point x="291" y="1800"/>
      <point x="224" y="1752"/>
    </contour>
  </outline>
</glyph>
